<?xml version="1.0" encoding="utf-8"?>
<!-- Generator: Adobe Illustrator 27.5.0, SVG Export Plug-In . SVG Version: 6.00 Build 0)  -->
<svg version="1.1" xmlns="http://www.w3.org/2000/svg" xmlns:xlink="http://www.w3.org/1999/xlink" x="0px" y="0px"
	 viewBox="0 0 750 500" style="enable-background:new 0 0 750 500;" xml:space="preserve">
<g id="BACKGROUND_2">
	<rect style="fill:#2A2836;" width="750" height="500"/>
</g>
<g id="OBJECTS">
	<g>
		<path style="fill:#FFFFFF;" d="M145.992,122.843c-1.069-1.336-20.313-19.244-19.511-16.838c0.802,2.405,4.009,21.916,4.009,21.916
			l-11.493-5.613l6.682,10.156c0,0-22.985-1.871-21.916-1.336c1.069,0.535,19.511,12.829,18.174,13.096
			c-1.336,0.267-20.847,12.829-20.847,12.829l22.451-0.802c0,0-11.493,16.036-10.691,15.769c0.802-0.267,14.165-5.078,14.165-5.078
			l-7.484,21.916l22.905-18.976c0,0,7.831,21.382,7.831,20.313c0-1.069,1.336-18.976,1.336-18.976l17.64,20.313l-4.544-21.916
			l20.58,9.355l-16.304-17.907l21.916-10.156l-21.916-6.147l21.916-10.958l-19.511,1.336l16.304-15.502l-24.589,6.949l4.009-26.994
			l-13.631,25.124l-4.811-12.829L145.992,122.843z"/>
		<path style="fill:#FEE66A;" d="M146.841,135.736c-1.201-0.72-15.357-21.132-14.876-20.171c0.48,0.961,7.684,24.254,7.684,24.254
			l-9.365-4.563l7.204,8.165c0,0-28.336,6.724-27.375,6.724c0.961,0,26.175,1.681,26.175,1.681l-9.365,11.526l12.247-5.763
			l-8.417,21.612l15-19.931l4.463,16.569c0,0,0.48-14.408,1.201-15.128c0.72-0.72,13.688,20.892,13.688,20.892l-5.283-23.773
			l23.773-3.122l-24.974-6.139c0,0,22.092-11.15,21.372-10.91c-0.72,0.24-22.573,4.563-22.573,4.563s18.01-16.329,17.29-15.849
			c-0.72,0.48-20.171,9.845-20.892,10.086c-0.72,0.24,3.122-15.369,3.122-15.369L146.841,135.736z"/>
	</g>
	<g>
		<path style="fill:#FE9A1E;" d="M423.929,173.635c-0.195-4.355-1.55-8.457-3.786-11.911c1.561-2.382,2.462-5.173,2.329-8.128
			c-0.307-6.862-4.684-12.845-11.025-14.768c-1.471-10.312-9.748-18.649-20.677-18.649c-2.074,0-4.131,0.348-6.1,0.986
			c-0.083-0.632-0.185-1.264-0.327-1.896c-0.168-3.707-1.27-7.16-3.306-10.357c-1.452-1.879-2.904-3.758-4.356-5.638
			c-3.476-3.452-7.573-5.84-12.292-7.164c-2.469-0.332-4.937-0.663-7.406-0.995c-5.028,0.016-9.715,1.283-14.06,3.803
			c-0.417,0.21-0.834,0.419-1.251,0.629c-3.246,1.75-5.852,4.142-7.816,7.175c-0.208,0.228-0.403,0.463-0.599,0.697
			c-1.168-0.238-2.368-0.36-3.6-0.364c-1.586,0.213-3.172,0.426-4.758,0.639c-3.032,0.851-5.665,2.385-7.899,4.603
			c-0.195,0.195-0.391,0.391-0.586,0.586c-1.244,1.156-2.216,2.47-2.94,3.93c-0.737-0.067-1.48-0.113-2.234-0.116h-0.626
			c-3.356-0.127-6.486,0.573-9.391,2.099c-3.022,0.983-5.637,2.663-7.844,5.04c-2.377,2.208-4.057,4.823-5.04,7.844
			c-0.862,1.641-1.451,3.356-1.785,5.141c-1.066,0.679-2.049,1.498-2.947,2.465c-1.018,1.317-2.035,2.635-3.053,3.952
			c-1.766,3.046-2.655,6.331-2.666,9.856c0.233,1.73,0.465,3.461,0.698,5.191c0.026,0.091,0.058,0.179,0.085,0.269
			c-6.131,4.498-10.315,11.633-9.964,19.465c0.591,13.206,10.71,24.375,24.375,24.375c0.46,0,0.918-0.019,1.376-0.047
			c-0.065,0.65-0.109,1.306-0.111,1.974v0.626c-0.101,2.671,0.456,5.162,1.671,7.475c0.782,2.405,2.12,4.486,4.011,6.244
			c1.757,1.892,3.838,3.229,6.244,4.011c2.312,1.215,4.803,1.772,7.475,1.671c1.719-0.231,3.438-0.462,5.157-0.693
			c2.725-0.764,5.148-2.047,7.278-3.831c1.808,0.637,3.755,1.002,5.822,1.002c0.429,0,0.856-0.036,1.283-0.07
			c0.774,1.16,1.687,2.238,2.752,3.228c2.118,2.28,4.626,3.891,7.524,4.834c2.786,1.464,5.789,2.135,9.008,2.014
			c2.072-0.278,4.143-0.557,6.215-0.835c3.961-1.111,7.4-3.115,10.317-6.013c1.219-1.577,2.437-3.154,3.656-4.732
			c0.468-0.806,0.875-1.629,1.24-2.463c2.426,1.067,5.12,1.665,8.005,1.665c10.668,0,20.888-9.381,20.395-20.395
			c-0.038-0.859-0.141-1.702-0.274-2.537C413.543,195.472,424.457,185.427,423.929,173.635z"/>
		<path style="fill:#FF6816;" d="M298,149.998c-7.272,0-11.244,5.121-11.932,10.723c-1.26,0.519-2.379,1.278-3.339,2.311
			c-0.65,0.842-1.301,1.683-1.951,2.525c-1.128,1.946-1.696,4.045-1.703,6.297c0.149,1.105,0.297,2.211,0.446,3.316
			c0.593,2.113,1.662,3.948,3.208,5.505c0.195,0.195,0.391,0.391,0.586,0.586c1.13,1.217,2.468,2.076,4.015,2.58
			c1.487,0.781,3.089,1.139,4.807,1.074c1.718,0.065,3.32-0.293,4.807-1.074c1.547-0.503,2.885-1.363,4.015-2.58
			c0.65-0.842,1.3-1.683,1.951-2.525c1.005-1.732,1.539-3.593,1.655-5.568C313.628,167.47,311.46,149.998,298,149.998z"/>
		<path style="fill:#FF6816;" d="M335.17,191.404c5.222-7.218,2.031-20.301-9.616-20.301c-0.124,0-0.238,0.015-0.361,0.018
			c-1.558-0.75-3.387-1.19-5.502-1.19c-14.447,0-15.908,20.194-4.34,24.241c-3.429,7.392,0.155,18.298,10.789,18.298
			C338.189,212.469,341.21,198.417,335.17,191.404z"/>
		<path style="fill:#FF6816;" d="M373.04,179.311c-5.662,0-9.32,3.107-10.992,7.124c-1.265-0.43-2.678-0.676-4.25-0.676
			c-16.055,0-16.081,24.951,0,24.951c5.662,0,9.32-3.107,10.992-7.124c1.265,0.43,2.678,0.676,4.25,0.676
			C389.095,204.262,389.122,179.311,373.04,179.311z"/>
		<path style="fill:#FF6816;" d="M394.732,166.999c-16.055,0-16.081,24.951,0,24.951
			C410.787,191.95,410.813,166.999,394.732,166.999z"/>
		<path style="fill:#FF6816;" d="M343.728,114.823c-4.238,0-7.347,1.747-9.35,4.306c-0.766-0.161-1.557-0.233-2.375-0.202
			c-1.106,0.149-2.211,0.297-3.317,0.446c-2.113,0.593-3.948,1.662-5.505,3.208c-0.65,0.842-1.301,1.683-1.951,2.525
			c-0.105,0.181-0.181,0.371-0.277,0.555c-0.544,0.114-1.055,0.272-1.551,0.449c-1.303-0.465-2.764-0.734-4.401-0.734
			c-16.055,0-16.081,24.951,0,24.951c1.635,0,3.095-0.27,4.397-0.734c1.302,0.464,2.761,0.734,4.397,0.734
			c5.207,0,8.717-2.63,10.549-6.177c0.325-0.044,0.65-0.087,0.975-0.131c2.113-0.593,3.948-1.662,5.505-3.208
			c0.306-0.396,0.612-0.792,0.918-1.188c0.635,0.089,1.29,0.152,1.986,0.152C359.783,139.774,359.809,114.823,343.728,114.823z"/>
		<path style="fill:#FF6816;" d="M383.915,138.928c-0.037-6.206-4.047-12.381-12.047-12.381c-10.292,0-13.985,10.248-11.083,17.609
			c-0.213-0.009-0.423-0.021-0.642-0.021c-6.853,0-10.777,4.547-11.781,9.757c-8.444,6.033-6.101,22.816,7.091,22.816
			c2.197,0,4.083-0.48,5.679-1.286c1.709,0.834,3.524,1.28,5.459,1.286h0.586c1.718,0.065,3.32-0.293,4.807-1.075
			c1.547-0.503,2.885-1.363,4.015-2.579c1.217-1.13,2.076-2.468,2.579-4.015c0.781-1.487,1.139-3.089,1.074-4.807
			c-0.074-0.55-0.148-1.1-0.222-1.649C392.301,161.603,393.808,143.811,383.915,138.928z"/>
		<path style="fill:#F8E203;" d="M378.752,135.982c-0.241-1.859-0.482-3.719-0.723-5.578c-0.962-3.554-2.697-6.641-5.206-9.259
			c-1.366-1.094-2.732-2.187-4.097-3.281c-3.158-1.898-6.564-2.853-10.218-2.865h-0.625c-2.787-0.109-5.387,0.493-7.8,1.807
			c-2.51,0.846-4.681,2.292-6.515,4.338c-0.328,0.316-0.616,0.656-0.912,0.991c-2.411-2.614-5.869-4.333-10.405-4.333
			c-12.725,0-17.095,13.477-13.086,22.708c-2.965-2.265-6.606-3.627-10.67-3.627c-9.682,0-18.957,8.824-18.509,19.184
			c0.15,3.466,1.119,6.744,2.71,9.587c-5.674,2.829-9.727,8.879-9.727,15.683c0,9.429,7.677,17.385,16.774,17.385
			c9.064,0,16.774-7.99,16.774-17.385c0-2.618-0.609-5.113-1.658-7.365c0.922-0.368,1.815-0.814,2.674-1.324
			c0.606,1.03,1.342,1.981,2.233,2.839c1.519,1.695,3.319,2.893,5.398,3.595c1.999,1.089,4.153,1.588,6.463,1.497
			c1.487-0.207,2.973-0.414,4.459-0.621c2.842-0.826,5.309-2.316,7.402-4.471c0.874-1.173,1.749-2.346,2.623-3.519
			c1.517-2.712,2.281-5.636,2.29-8.775v-0.648c0.087-2.394-0.395-4.626-1.445-6.698c-0.456-1.454-1.15-2.764-2.043-3.954
			c0.917,0.735,1.835,1.469,2.752,2.204c3.158,1.898,6.563,2.853,10.218,2.865h0.625c2.787,0.109,5.387-0.493,7.8-1.807
			c2.51-0.846,4.681-2.292,6.515-4.338c1.974-1.9,3.369-4.151,4.186-6.753C378.276,141.565,378.857,138.87,378.752,135.982z"/>
		<path style="fill:#F8E203;" d="M410.486,157.706c-0.747-2.665-2.096-4.978-4.045-6.941c-0.195-0.195-0.391-0.391-0.586-0.586
			c-1.425-1.534-3.112-2.618-5.062-3.252c-1.875-0.985-3.895-1.437-6.06-1.355c-2.166-0.082-4.186,0.37-6.06,1.355
			c-1.95,0.634-3.638,1.718-5.062,3.252c-0.82,1.061-1.64,2.122-2.46,3.184c-0.974,1.679-1.608,3.45-1.919,5.31
			c-1.953-1.717-4.595-2.811-7.948-2.811c-16.055,0-16.081,24.951,0,24.951c0.299,0,0.587-0.018,0.875-0.035
			c0.293,5.99,4.29,11.76,12.023,11.76c9.09,0,13.037-7.997,11.836-14.936c1.901-0.031,3.693-0.461,5.363-1.338
			c1.95-0.634,3.638-1.719,5.062-3.253c0.82-1.061,1.64-2.122,2.46-3.184c1.423-2.454,2.139-5.1,2.148-7.939
			C410.861,160.493,410.673,159.099,410.486,157.706z"/>
		<path style="fill:#F8E203;" d="M361.159,187.539c-2.076,0-3.888,0.44-5.449,1.197c-0.527-1.877-1.423-3.523-2.709-4.921
			c-0.195-0.211-0.391-0.422-0.586-0.634c-0.983-1.143-2.146-1.951-3.491-2.424c-1.293-0.734-2.686-1.07-4.18-1.01
			c-1.494-0.061-2.887,0.276-4.18,1.01c-1.345,0.473-2.509,1.281-3.491,2.424c-1.898,2.234-3.307,5.167-3.177,8.288
			c0.064,0.514,0.128,1.027,0.191,1.54c-1.475-1.21-3.394-1.955-5.758-1.955c-12.565,0-12.585,21.099,0,21.099
			c1.246,0,2.363-0.214,3.362-0.588c0.473,1.195,1.154,2.259,2.067,3.175c1.032,1.2,2.254,2.049,3.666,2.545
			c1.357,0.771,2.82,1.124,4.389,1.06c1.009-0.146,2.019-0.293,3.028-0.44c1.93-0.585,3.605-1.64,5.026-3.165
			c0.594-0.83,1.187-1.66,1.781-2.491c0.122-0.228,0.214-0.465,0.321-0.697c2.093,2.477,5.149,4.117,9.189,4.117
			C377.912,215.67,377.94,187.539,361.159,187.539z"/>
		<path style="fill:#F1F1F1;" d="M360.143,125.244c-4.895,0-8.069,2.67-9.534,6.134c-1.036-0.721-2.348-1.165-3.949-1.165
			c-1.95,0-3.479,0.654-4.592,1.677c-0.418-1.389-1.17-2.695-2.169-3.694c-0.786-0.846-1.717-1.444-2.793-1.794
			c-1.034-0.543-2.149-0.792-3.344-0.747c-2.244,0.101-4.572,0.838-6.137,2.542c-1.559,1.698-2.542,3.785-2.542,6.137v0.586
			c0,2.225,0.968,4.563,2.542,6.137c0.786,0.846,1.717,1.445,2.793,1.794c1.034,0.543,2.149,0.793,3.344,0.747
			c2.245-0.1,4.572-0.838,6.137-2.542c0.203-0.221,0.395-0.45,0.578-0.684c0.959,2.23,3.017,3.943,6.183,3.943
			c2.078,0,3.676-0.745,4.803-1.885c1.693,2.637,4.58,4.51,8.681,4.51C374.104,146.94,374.127,125.244,360.143,125.244z"/>
		<path style="fill:#F1F1F1;" d="M331.417,155.466c-0.746,0-1.428,0.098-2.06,0.261c-0.124-0.798-0.361-1.564-0.743-2.292
			c-0.394-1.21-1.067-2.258-2.019-3.142c-0.884-0.952-1.932-1.625-3.142-2.019c-1.164-0.611-2.417-0.891-3.762-0.841
			c-2.525,0.113-5.144,0.943-6.904,2.86c-1.065,1.16-1.886,2.483-2.37,3.935c-1.034-2.007-3.018-3.496-5.969-3.496
			c-9.074,0-9.089,14.103,0,14.103c3.08,0,5.114-1.627,6.105-3.774c0.071,0.162,0.132,0.326,0.216,0.484
			c0.394,1.21,1.067,2.258,2.019,3.142c0.884,0.952,1.932,1.625,3.142,2.019c1.164,0.611,2.417,0.892,3.762,0.841
			c1.719-0.077,3.476-0.497,4.981-1.356c0.991,2.506,3.233,4.463,6.744,4.463C341.189,170.653,341.205,155.466,331.417,155.466z"/>
		<path style="fill:#F1F1F1;" d="M360.729,194.745c-3.087,0-5.198,1.518-6.337,3.592c-0.421-3.954-3.188-7.608-8.32-7.608
			c-4.072,0-6.654,2.31-7.759,5.242c-1-0.807-2.318-1.313-3.966-1.313c-8.376,0-8.39,13.018,0,13.018
			c2.426,0,4.146-1.095,5.168-2.646c1.39,1.814,3.57,3.057,6.557,3.057c3.7,0,6.169-1.91,7.419-4.458
			c0.491,3.321,2.899,6.304,7.237,6.304C370.502,209.932,370.518,194.745,360.729,194.745z"/>
		<path style="fill:#F1F1F1;" d="M305.534,178.39c-1.273-1.169-2.839-1.906-4.603-1.906h-0.586c-1.669,0-3.422,0.726-4.603,1.906
			c-1.129,1.129-1.979,2.981-1.906,4.603c0.075,1.683,0.628,3.429,1.906,4.603c1.274,1.169,2.839,1.906,4.603,1.906h0.586
			c1.669,0,3.422-0.726,4.603-1.906c1.129-1.129,1.979-2.981,1.906-4.603C307.365,181.309,306.812,179.563,305.534,178.39z"/>
		<path style="fill:#F1F1F1;" d="M392.973,153.209c-6.757,0-9.425,6.351-8.008,11.37c-0.614-0.119-1.264-0.187-1.959-0.187
			c-1.679,0-3.112,0.379-4.317,1.013c-0.948-2.601-3.218-4.662-6.822-4.662c-9.772,0-9.789,15.188,0,15.188
			c0.888,0,1.693-0.129,2.419-0.356c0.725,3.871,3.625,7.26,8.719,7.26c7.323,0,10.128-7.021,8.414-12.399
			c0.493,0.079,1.005,0.132,1.553,0.132C404.142,170.566,404.16,153.209,392.973,153.209z"/>
		<path style="fill:#FE9A1E;" d="M325.995,221.379c2.556,5.127,5.358,11.898,1.388,13.446c-3.971,1.548-9.217-1.354-6.244-6.723
			C324.112,222.733,325.995,221.379,325.995,221.379z"/>
		<path style="fill:#FE9A1E;" d="M282.052,197.027c-0.437-0.383-0.875-0.766-1.312-1.149c-0.206-0.18-0.568-0.236-0.767,0
			c-1.771,2.102-3.996,3.58-6.319,4.985c-5.485,1.642-9.501,5.368-6.538,8.014c0.896,0.8,1.958,0.603,3.039-0.124
			c0.292-0.113,0.569-0.253,0.809-0.415c1.103-0.746,2.072-1.708,2.887-2.754c0.626-0.803,1.065-1.773,1.6-2.657
			c1.701-2.183,3.878-3.876,6.491-5.047C282.252,197.74,282.296,197.241,282.052,197.027z"/>
		<path style="fill:#FE9A1E;" d="M317.555,115.982c-0.064,0.011-0.127,0.006-0.19,0.008c-2.525-2.451-4.266-5.443-5.737-8.598
			c-0.762-2.894-1.457-5.817-3.09-8.379c-1.881-2.95-6.102-7.432-9.981-5.068c-4.024,2.452-0.807,7.311,1.621,9.439
			c2.004,1.757,4.241,3.221,6.453,4.699c0.1,0.066,0.224,0.146,0.366,0.235c3.316,3.159,6.243,6.658,7.532,11.184
			c0.104,0.366,0.635,0.562,0.907,0.239c0.586-0.696,1.198-1.359,1.825-2.009c0.213-0.104,0.418-0.207,0.606-0.292
			c0.215-0.097,0.292-0.363,0.244-0.59C318.466,116.445,318.042,115.899,317.555,115.982z"/>
		<path style="fill:#FE9A1E;" d="M404.494,100.015c-4.018-2.848-8.477,2.97-10.491,5.767c-1.457,2.023-2.638,4.201-3.571,6.477
			c-0.323,0.574-0.61,1.175-0.87,1.796c-0.179,0.041-0.339,0.175-0.358,0.408c-0.022,0.262-0.069,0.516-0.1,0.775
			c-0.825,2.275-1.424,4.693-2.333,6.755c-0.034,0.076-0.036,0.149-0.031,0.219c-0.186,0.409-0.38,0.815-0.571,1.222
			c-0.524,0.721-1.06,1.433-1.623,2.127c-0.255,0.314-0.018,0.72,0.279,0.768c-0.186,0.494,0.537,0.907,0.783,0.406
			c0.026-0.054,0.049-0.109,0.076-0.162c0.185,0.113,0.456,0.098,0.608-0.105c0.169,0.03,0.349-0.021,0.447-0.202
			c0.092-0.17,0.183-0.339,0.275-0.509c0.04-0.075,0.052-0.146,0.051-0.215c0.325-0.124,0.647-0.26,0.967-0.406
			c0.018,0.013,0.032,0.031,0.051,0.042c0.075,0.411,0.697,0.515,0.865,0.042c0.062-0.176,0.114-0.355,0.174-0.531
			c0.19,0.015,0.387-0.069,0.458-0.304c1.004-3.344,3.012-6.098,5.229-8.747c1.123-1.342,2.686-2.219,3.943-3.374
			c1.015-0.491,2.06-1.292,2.941-2.177c0.447-0.271,0.894-0.542,1.354-0.812C406.632,107.165,408.581,102.912,404.494,100.015z"/>
		<path style="fill:#FE9A1E;" d="M425.392,200.993c-0.001-1.217-0.439-2.371-1.502-3.288c-1.143-0.986-3.712-2.081-5.409-1.651
			c-0.794-0.203-1.668-0.061-2.488,0.004c-0.335,0.026-0.668,0.067-1.003,0.101c-0.565,0.029-1.13,0.075-1.694,0.152
			c-2.688-0.296-5.432-1.03-7.725-2.158c-1.119-0.917-2.097-2.022-2.846-3.408c-0.332-0.615-1.269-0.067-0.937,0.548
			c0.125,0.232,0.262,0.449,0.399,0.667c-0.514-0.364-1.121,0.298-0.7,0.809c0.048,0.058,0.102,0.109,0.151,0.166
			c-0.148-0.094-0.297-0.187-0.445-0.281c-0.547-0.345-1.041,0.405-0.657,0.852c0.609,0.709,1.277,1.327,1.983,1.89
			c-0.32,0.191-0.451,0.697-0.029,0.925c0.233,0.126,0.475,0.223,0.713,0.333c-0.696-0.022-1.36,0.043-1.982,0.196
			c-0.137-0.002-0.285-0.007-0.415-0.007c-0.352-0.002-0.617,0.349-0.523,0.687c0.102,0.366,0.307,0.642,0.577,0.856
			c-0.531,0.141-0.483,1.041,0.155,1.057c2.175,0.055,4.406,0.078,6.547,0.506c0.061,0.061,0.137,0.112,0.25,0.133
			c0.188,0.035,0.323,0.06,0.439,0.08c0.063,0.074,0.146,0.137,0.271,0.163c2.205,0.464,4.283,1.159,6.272,2.232
			c0.4,0.245,0.805,0.474,1.21,0.702c1.209,0.744,2.396,1.543,3.722,2.055c0.308,0.119,0.6,0.209,0.885,0.284
			c0.45,0.166,0.936,0.228,1.424,0.179c0.047-0.002,0.097,0.003,0.143-0.001c0.869,0.374,1.489,0.157,1.914-0.376
			c0.106-0.061,0.208-0.126,0.289-0.208C425.589,203.982,425.804,202.423,425.392,200.993z"/>
		<path style="fill:#FE9A1E;" d="M366.506,237.136c-0.509-3.11-1.775-5.96-3.606-8.513c-0.057-0.079-0.126-0.13-0.198-0.167
			c-0.42-0.565-0.876-1.106-1.363-1.623c-0.073-0.119-0.145-0.238-0.218-0.358c-0.048-0.079-0.112-0.132-0.182-0.173
			c-0.073-0.066-0.156-0.096-0.241-0.112c-0.153-0.148-0.301-0.301-0.46-0.444c-0.401-0.362-0.946,0.017-0.932,0.424
			c-0.052,0.08-0.087,0.174-0.074,0.294c0.454,4.175,1.098,8.367,2.117,12.449c0.064,0.315,0.137,0.631,0.227,0.938
			c0.022,0.082,0.038,0.167,0.06,0.249c0.315,1.167,1.017,3.178,2.283,2.92c0.017,0,0.029,0.007,0.048,0.005
			c0.858-0.082,1.518-0.626,1.843-1.33C367.123,240.704,366.737,238.546,366.506,237.136z"/>
		<path style="fill:#F1F1F1;" d="M303.445,96.741c-0.554-0.399-1.108-0.797-1.662-1.196c-0.924-0.665-2.456-0.191-2.968,0.778
			c-0.593,1.122-0.208,2.259,0.778,2.969c0.554,0.399,1.108,0.797,1.662,1.196c0.924,0.665,2.456,0.191,2.969-0.778
			C304.817,98.587,304.432,97.45,303.445,96.741z"/>
		<path style="fill:#F1F1F1;" d="M400.936,102.033c-0.467,0.204-0.611,0.584-0.549,0.956c-0.168,0.322-0.27,0.695-0.322,1.083
			c-0.161,1.195-0.528,2.292-1.283,3.25c-0.687,0.87,0.223,2.497,1.315,1.704c1.563-1.136,3.959-2.34,4.189-4.492
			C404.492,102.598,402.704,101.262,400.936,102.033z"/>
		<path style="fill:#F1F1F1;" d="M423.953,201.443c0.09-1.329-1.03-2.441-2.352-2.377c-0.278,0.013-0.511,0.129-0.692,0.295
			c-0.887-0.16-1.778-0.224-2.684-0.156c-1.023,0.077-1.54,1.459-0.547,2.022c0.403,0.228,0.806,0.457,1.209,0.685
			c0.075,0.256,0.206,0.488,0.38,0.681c0.285,0.755,1.046,1.318,1.892,1.315c1.121-0.004,1.839-0.678,2.125-1.533
			C423.633,202.228,423.921,201.925,423.953,201.443z"/>
		<path style="fill:#F1F1F1;" d="M327.492,228.549c-0.343-0.474-0.944-0.705-1.484-0.389c-0.468,0.274-0.734,1.007-0.389,1.484
			c0.18,0.25,0.271,0.483,0.119,0.762c-0.666,1.227,1.206,2.324,1.873,1.095C328.113,230.577,328.121,229.419,327.492,228.549z"/>
		<path style="fill:#F1F1F1;" d="M270.04,204.404c-0.46,0.843-1.089,1.524-1.908,2.028c-1.188,0.73-0.099,2.607,1.095,1.873
			c1.126-0.692,2.052-1.645,2.686-2.806C272.584,204.273,270.711,203.177,270.04,204.404z"/>
		<path style="fill:#F1F1F1;" d="M363.644,235.207c-0.138-0.742-0.409-1.447-0.78-2.105c-0.686-1.216-2.561-0.124-1.873,1.095
			c0.284,0.504,0.456,1.018,0.561,1.586c0.107,0.576,0.804,0.904,1.335,0.758C363.491,236.375,363.751,235.785,363.644,235.207z"/>
	</g>
	<g>
		<path style="fill:#FD6D0A;" d="M678.386,170.904c3.077-2.164,5.543-5.417,6.79-9.668c1.893-6.456,0.454-14.14-2.945-20.781
			c6.016-3.403,10.39-9.801,10.07-16.924c-0.473-10.568-8.57-19.505-19.505-19.505c-1.984,0-3.95,0.348-5.83,0.972
			c0.548-1.705,0.845-3.507,0.845-5.362c0-9.896-8.351-18.246-18.246-18.246c-4.333,0-8.38,1.621-11.557,4.274
			c-2.746-3.995-7.478-6.446-12.572-6.453c-3.131-0.005-5.992,0.82-8.573,2.222c-3.264-5.158-9.009-8.672-15.419-8.672
			c-9.86,0-18.246,8.386-18.246,18.246c0,0.623,0.034,1.24,0.098,1.849c-2.197,0.757-4.323,1.799-6.325,3.083
			c-3.476-3.776-8.363-6.183-14.023-6.183c-10.203,0-19.977,8.971-19.505,19.505c0.045,1.005,0.18,1.988,0.359,2.958
			c-12.062,1.108-22.485,9.527-24.889,21.778c-0.836,4.263-0.813,9.024,0.061,13.657c-2.411,0.917-4.565,2.275-6.43,4.128
			c-0.951,1.231-1.902,2.462-2.853,3.693c-1.651,2.846-2.481,5.916-2.491,9.209v0.332c-0.095,2.512,0.429,4.855,1.572,7.03
			c0.736,2.262,1.993,4.22,3.773,5.872c1.653,1.779,3.61,3.037,5.872,3.773c2.174,1.142,4.518,1.666,7.03,1.571
			c0.798-0.107,1.596-0.214,2.394-0.322c-0.119,0.474-0.246,0.943-0.343,1.431c-1.576,7.917,0.429,15.575,4.931,21.607
			c-1.878,2.859-2.993,6.236-2.993,9.814c0,9.896,8.351,18.246,18.246,18.246c2.77,0,5.413-0.681,7.797-1.851
			c3.314,4.88,8.904,8.156,15.102,8.156c1.3,0,2.571-0.154,3.803-0.43c3.066,6.255,9.209,10.683,16.772,10.683
			c6.398,0,12.603-3.656,16.068-8.996c3.898,1.556,8.237,2.152,12.815,1.458c6.95-1.053,14.751-5.826,18.469-12.247
			c3.221,2.383,7.18,3.775,11.182,4.258c12.987,1.568,23.692-3.953,28.138-16.407c1.668-4.672,2.383-9.978,1.77-14.919
			c4.497-2.968,7.719-7.826,8.267-14.295C688.546,181.422,684.469,174.593,678.386,170.904z"/>
		<path style="fill:#F44901;" d="M673.645,180.428c-0.11-0.11-0.219-0.219-0.329-0.329c-0.373-0.402-0.775-0.754-1.191-1.083
			c0.283-0.685,0.546-1.399,0.696-1.886c0.776-2.529,0.369-4.759-0.025-7.248c-0.413-1.736-1.208-3.248-2.388-4.536
			c-0.94-1.452-2.188-2.597-3.742-3.435c-0.558-0.355-1.138-0.63-1.728-0.867c0.075-0.574,0.115-1.158,0.116-1.752
			c0.036-0.308,0.025-0.586-0.002-0.893c-0.111-1.276-0.231-2.744-0.581-3.982c-0.22-0.613-0.47-1.214-0.749-1.804
			c-0.238-0.607-0.493-1.206-0.765-1.797c-0.628-1.129-1.516-2.088-2.324-3.095c9.819-12.384-8.267-29.842-19.815-17.765
			c-1.466,1.533-3.251,0.837-5.603,1.283c-2.562,0.486-4.89,1.171-7.14,2.613c-2.554,1.637-4.398,3.709-6.13,6.168
			c-0.738,1.048-1.592,3.578-2.597,4.282c-1.976,1.386-4.138-0.738-5.937-1.787c-2.509-1.464-5.247-2.625-7.91-3.847
			c1.478-4.201,9.42-10.089,11.177-11.598c5.468-4.696,4.822-14.042,0-18.863c-0.906-0.906-1.887-1.625-2.911-2.199
			c-1.938-3.853-5.711-6.725-11.346-6.725c-9.983,0-14.158,9.021-12.531,16.572c-1.419,1.561-2.786,3.161-4.011,4.851
			c-0.702-1.75-1.727-3.344-3.298-4.912c-2.829-2.823-7.105-4.388-11.077-4.241c-1.601,0.059-3.302,0.341-4.807,0.891
			c-0.166,0.07-0.332,0.14-0.498,0.21c-0.276-0.089-0.552-0.172-0.826-0.273c-6.554-2.429-14.903,2.708-16.408,9.316
			c-1.721,7.557,2.299,13.806,9.316,16.408c2.273,0.843,4.682,1.413,7.113,1.559c-0.044,0.121-0.101,0.234-0.142,0.358
			c-0.835,1.589-1.218,3.302-1.149,5.139c-0.07,1.837,0.313,3.549,1.149,5.139c0.01,0.031,0.025,0.059,0.035,0.09
			c-4.228-3.483-11.004-4.672-15.811-1.708c-0.453-1.257-1.129-2.385-2.036-3.377c-0.941-1.452-2.188-2.597-3.742-3.435
			c-1.531-0.975-3.184-1.502-4.959-1.583c-1.773-0.397-3.546-0.318-5.319,0.238c-3.227,1.044-6.341,3.044-7.971,6.13
			c-0.448,1.062-0.896,2.124-1.344,3.186c-0.635,2.364-0.635,4.728,0,7.092c0.116,0.656,0.232,1.312,0.348,1.969
			c0.413,1.736,1.208,3.248,2.388,4.536c0.94,1.452,2.188,2.597,3.742,3.435c1.531,0.975,3.184,1.502,4.959,1.583
			c1.219,0.273,2.438,0.304,3.657,0.127c0.009,1.617,0.228,3.229,0.735,4.784c0.104,0.318,0.225,0.633,0.347,0.947
			c-0.067,0.069-0.142,0.128-0.207,0.199c-2.396,2.61-3.907,5.818-3.907,9.432v0.657c-0.069,1.836,0.314,3.549,1.149,5.139
			c0.538,1.654,1.457,3.084,2.758,4.293c1.208,1.301,2.639,2.22,4.293,2.758c1.589,0.835,3.302,1.218,5.139,1.149
			c3.45-0.154,7.028-1.288,9.432-3.907c0.28-0.305,0.545-0.62,0.8-0.941c0.826,0.839,1.78,1.559,2.893,2.082
			c2.26,1.063,4.522,2.121,6.779,3.19c0.812,0.385,1.63,0.766,2.423,1.191c0.226,0.157,0.635,0.44,0.986,0.73
			c2.417,2.004,5.179,3.702,8.258,4.33c-0.275,0.622-0.509,1.26-0.66,1.922c-0.623,2.735-0.479,5.331,0.291,7.648
			c-4.218,7.894-0.501,20.237,11.196,20.237c5.938,0,9.822-3.194,11.655-7.37c0.925,0.155,1.86,0.289,2.82,0.372
			c6.97,0.604,13.642-6.566,13.338-13.338c-0.347-7.743-5.872-12.691-13.338-13.338c3.462,0.3,0.604-0.008-0.303-0.284
			c-0.119-0.036-0.235-0.08-0.353-0.118c7.089-2.704,9.426-11.198,7.003-17.708c2.473-3.596,2.701-7.803,1.331-11.695
			c6.874,1.089,13.845-0.114,20.192-4.541c1.702-1.187,3.165-2.513,4.503-3.969c0.19,0.685,0.434,1.355,0.773,2
			c0.538,1.654,1.457,3.084,2.758,4.293c1.192,1.283,2.602,2.191,4.228,2.732c-0.319,1.46-0.334,2.92-0.007,4.38
			c0.081,1.775,0.608,3.428,1.583,4.959c0.918,1.424,2.061,2.762,3.399,3.842c-0.651,1.54-1.018,3.19-0.941,4.893
			c0.158,3.538,1.354,6.879,3.907,9.432c0.11,0.11,0.219,0.219,0.329,0.329c1.208,1.301,2.639,2.22,4.292,2.758
			c1.59,0.835,3.303,1.218,5.139,1.149c1.836,0.069,3.549-0.314,5.139-1.149c1.654-0.538,3.084-1.457,4.293-2.758
			c2.334-2.542,4.066-5.879,3.907-9.432C677.393,186.322,676.198,182.981,673.645,180.428z"/>
		<path style="fill:#FB9620;" d="M653.895,105.572c-8.847-6.843-19.758-11.563-31.124-8.695c-5.398,1.362-10.353,4.33-14.095,8.428
			c-2.067,2.263-3.462,5.932-4.5,8.862c-3.769,0.174-7.624,1.662-11.104,4.962c-7.55,7.16-12.495,18.379-8.492,28.558
			c3.714,9.443,14.023,15.57,24.061,15.646c10.578,0.081,18.691-6.212,22.42-14.41c11.752,1.964,24.016-0.02,30.841-11.149
			C669.04,126.137,663.802,113.235,653.895,105.572z"/>
		<path style="fill:#FB9620;" d="M574.427,152.561c-0.568-1.745-1.538-3.256-2.911-4.531c-0.414-0.445-0.861-0.833-1.324-1.193
			c0.011-1.472-0.076-2.951-0.247-4.436c0.043-0.143,0.099-0.273,0.14-0.419c1.172-4.257,0.643-9.926-1.793-13.704
			c-2.448-3.797-6.094-7.14-10.628-8.173c-4.382-0.998-9.92-0.99-13.704,1.793c-0.988,0.727-1.918,1.476-2.82,2.238
			c-1.315,0.941-2.469,2.022-3.443,3.228c-3.155,3.346-5.592,7.168-7.261,11.889c-3.196,9.042-0.49,18.827,7.086,24.68
			c4.084,3.155,8.946,4.342,13.664,3.914c0.141,0.146,0.269,0.3,0.42,0.44c1.275,1.373,2.786,2.343,4.531,2.911
			c1.678,0.882,3.486,1.286,5.424,1.213c1.248-0.168,2.495-0.335,3.743-0.503c2.385-0.669,4.456-1.876,6.213-3.621
			c2.529-2.755,4.124-6.141,4.124-9.956v-0.346C575.712,156.047,575.308,154.239,574.427,152.561z"/>
		<path style="fill:#FB9620;" d="M667.478,183.311c2.767-2.852,4.504-6.673,4.504-11.04c0-8.508-7.465-16.719-16.302-16.302
			c-3.808,0.18-7.68,0.546-11.298,1.766c0.539-0.182-2.562,1.321-5.239,2.741c-3.864-1.061-9.904,1.081-13.639,2.385
			c-4.492,1.568-8.875,3.377-12.248,6.874c-3.625,3.758-6.118,8.931-6.833,14.262c-1.633,0.578-3.062,1.506-4.271,2.808
			c-1.373,1.275-2.344,2.786-2.911,4.531c-0.882,1.678-1.286,3.486-1.213,5.424c0.168,1.248,0.335,2.495,0.503,3.743
			c0.669,2.385,1.876,4.456,3.621,6.213c2.253,2.068,4.933,3.494,7.919,3.952c-0.124,1.582,0.053,3.163,0.549,4.745
			c0.548,1.298,1.096,2.596,1.643,3.894c1.45,2.45,3.399,4.399,5.849,5.848c1.298,0.548,2.596,1.096,3.894,1.643
			c0.646,0.174,1.294,0.295,1.94,0.391c1.87,0.929,3.874,1.368,6.019,1.288c2.245,0.085,4.338-0.383,6.281-1.404
			c2.021-0.657,3.77-1.781,5.247-3.371c0.85-1.1,1.699-2.2,2.549-3.299c0.396-0.682,0.729-1.382,1.019-2.093
			c2.72,1.44,5.714,2.263,8.544,2.228c7.999-0.099,14.915-4.81,18.007-12.138C675.15,200.018,672.652,190.581,667.478,183.311z"/>
		<path style="fill:#FB9620;" d="M586.85,202.617c-0.083-0.334-0.194-0.659-0.296-0.986c1.677-2.448,2.771-5.318,2.636-8.331
			c-0.176-1.313-0.353-2.627-0.529-3.94c-0.704-2.511-1.974-4.691-3.811-6.54c-0.116-0.115-0.231-0.231-0.346-0.346
			c-1.342-1.445-2.932-2.467-4.77-3.064c-1.766-0.928-3.669-1.353-5.71-1.276c-2.041-0.077-3.944,0.349-5.71,1.276
			c-1.434,0.467-2.713,1.2-3.846,2.183c-2.087-1.297-4.669-2.074-7.755-2.074c-16.241,0-18.665,21.482-7.233,27.863
			c-0.183,1.234-0.273,2.495-0.22,3.805c0.265,6.622,3.676,12.771,9.363,16.259c6.209,3.807,14.296,3.548,21.328,4.338
			c3.702,0.416,8.483-2.037,11.003-4.558c2.699-2.699,4.731-7.127,4.558-11.003C595.22,209.681,591.873,205.087,586.85,202.617z"/>
		<path style="fill:#FB9620;" d="M600.213,93.713c-1.414-1.414-3.733-2.478-5.764-2.387c-2.108,0.094-4.294,0.787-5.764,2.387
			c-0.834,0.909-1.484,1.94-1.897,3.065c-1.553,0.381-2.987,1.117-4.167,2.297c-0.096,0.096-0.191,0.191-0.287,0.287
			c-1.321-0.497-2.718-0.776-4.157-0.711c-3.342,0.15-6.497,1.279-8.908,3.69l-0.346,0.346c-1.228,1.141-2.097,2.492-2.605,4.054
			c-0.789,1.501-1.15,3.119-1.085,4.853c-0.027,0.711,0.037,1.397,0.153,2.069c0.546,5.807,4.572,11.22,12.098,11.22
			c4.737,0,8.081-2.158,10.052-5.202c0.983-1.038,1.712-2.225,2.152-3.58c0.294-0.559,0.508-1.139,0.683-1.731
			c1.674-0.355,3.22-1.116,4.478-2.374c0.115-0.115,0.231-0.231,0.346-0.346c1.145-1.145,1.968-2.686,2.354-4.298
			c1.001-0.385,1.922-0.96,2.661-1.765c1.464-1.595,2.387-3.555,2.387-5.764v-0.346C602.601,97.387,601.692,95.191,600.213,93.713z"
			/>
		<path style="fill:#FB9620;" d="M537.013,171.766c-3.441-1.127-7.669-2.394-8.287-6.486c-0.299-1.98-2.793-3.073-4.558-2.588
			c-2.118,0.582-2.888,2.571-2.588,4.558c1.024,6.778,7.682,9.769,13.462,11.661C539.586,180.398,541.533,173.245,537.013,171.766z"
			/>
		<g>
			<path style="fill:#FB9620;" d="M677.637,144.695c-0.469-2.282-3.289-3.811-5.469-3.105c-2.209,0.715-3.378,2.653-3.181,4.847
				c0.01,0.14,0.001,0.278,0,0.416c-0.019,0.028-0.037,0.055-0.056,0.082c0.019-0.023,0.033-0.04,0.056-0.069v0.004
				c-0.006,0.017-0.011,0.034-0.016,0.05c-0.619,0.822-1.035,1.701-1.035,2.789c0,1.09,0.484,2.393,1.302,3.144
				c1.647,1.512,4.692,1.903,6.288,0C677.517,150.477,678.266,147.755,677.637,144.695z"/>
			<path style="fill:#FB9620;" d="M668.931,146.935C668.683,147.24,668.799,147.118,668.931,146.935L668.931,146.935z"/>
		</g>
		<path style="fill:#FB9620;" d="M598.368,170.704c-0.332-1.026-1.008-2.207-2.043-2.657c-1.279-0.556-2.557-1.112-3.836-1.668
			c-1.138-0.495-2.177-0.792-3.426-0.448c-1.031,0.284-2.149,1.081-2.657,2.043c-0.545,1.032-0.818,2.282-0.448,3.426
			c0.332,1.026,1.009,2.207,2.043,2.657c1.279,0.556,2.557,1.112,3.836,1.668c1.138,0.495,2.177,0.792,3.426,0.448
			c1.031-0.284,2.149-1.081,2.657-2.043C598.465,173.098,598.738,171.848,598.368,170.704z"/>
		<path style="fill:#FB9620;" d="M607.649,229.85c-1.262-1.958-3.987-2.936-6.083-1.595c-0.917,0.587-1.834,1.173-2.751,1.76
			c-1.958,1.252-2.932,4.009-1.595,6.083c1.262,1.958,3.987,2.936,6.083,1.595c0.917-0.587,1.834-1.173,2.751-1.76
			C608.012,234.681,608.987,231.924,607.649,229.85z"/>
		<path style="fill:#FB9620;" d="M678.306,119.809c-0.279-1.623-1.379-2.975-2.739-3.841c-1.31-0.835-3.327-0.315-4.055,1.063
			c-0.764,1.446-0.342,3.115,1.011,4.015c0.017,0.028,0.034,0.057,0.049,0.086c0.005,0.1,0.013,0.218,0.018,0.252
			c0.264,1.532,2.227,2.53,3.646,2.07C677.887,122.921,678.589,121.451,678.306,119.809z"/>
		<path style="fill:#FB9620;" d="M619.459,87.518c-0.813-0.548-1.876-0.706-2.825-0.483c-1.011,0.238-1.682,0.813-2.3,1.621
			c-0.731,0.954-0.148,2.489,0.797,3.042c0.857,0.501,1.725,0.341,2.415-0.173c0.966,0.39,2.193-0.08,2.711-0.965
			C620.897,89.465,620.457,88.191,619.459,87.518z"/>
		<path style="fill:#FFDE03;" d="M565.127,149.644c-0.705-2.163-2.212-3.928-4.376-4.682c5.303-6.781,2.36-19.605-8.885-19.605
			c-8.991,0-12.688,8.233-11.084,14.997c-0.075,0.048-0.153,0.088-0.227,0.141c-3.79,2.726-6.233,7.675-3.559,12.142
			c0.556,0.929,1.277,1.724,2.102,2.37c0.173,0.723,0.464,1.419,0.915,2.044c2.036,2.821,5.896,4.474,9.125,2.393
			c0.079-0.051,0.154-0.111,0.232-0.166c0.372-0.045,0.743-0.105,1.095-0.206c1.354-0.389,2.579-1.183,3.571-2.195
			c0.664,0.556,1.421,0.991,2.343,1.245c1.596,0.44,3.722,0.241,5.139-0.672c0.029-0.018,0.054-0.043,0.082-0.062
			c1.179-0.574,2.232-1.43,2.853-2.605C565.272,153.237,565.686,151.357,565.127,149.644z"/>
		<path style="fill:#FFDE03;" d="M586.719,217.268c-0.405-1.25-1.113-2.609-2.129-3.557c-0.639-1.201-1.543-2.239-2.763-2.939
			c-2.048-1.175-4.416-1.771-6.751-1.299c0.335-0.638,0.624-1.339,0.855-2.134c0.486-1.674,0.257-3.344-0.421-4.812
			c2.391-1.257,4.231-3.645,5.823-5.922c2.228-3.186,0.683-8.373-2.658-10.138c-1.82-0.962-3.676-1.154-5.381-0.736
			c-0.957-0.361-1.98-0.563-3.033-0.548c-1.992,0.03-3.789,0.633-5.388,1.779c-1.052,0.061-2.109,0.191-3.221,0.423
			c-0.51,0.107-0.972,0.284-1.412,0.49c-0.501-0.155-1.011-0.274-1.534-0.319c-4.672-1.245-9.553,2.088-10.126,6.901
			c-0.378,3.181,0.802,5.608,2.688,7.18c0.669,1.398,1.637,2.669,2.899,3.688c0.728,0.588,1.503,1.043,2.303,1.395
			c-0.417,1.029-0.661,2.137-0.661,3.298c0,6.202,7.134,10.789,12.66,7.678c0.084,3.463,2.437,6.541,5.78,7.516
			c0.399,0.117,0.822,0.186,1.251,0.234c0.115,0.059,0.211,0.137,0.332,0.191c0.85,0.542,1.769,0.835,2.755,0.879
			c0.985,0.221,1.97,0.176,2.955-0.132c1.719-0.473,3.581-1.802,4.428-3.405C586.88,221.258,587.335,219.175,586.719,217.268z"/>
		<path style="fill:#FFDE03;" d="M661.857,171.245c-1.007-1.084-2.199-1.85-3.577-2.298c-1.325-0.696-2.752-1.015-4.283-0.957
			c-1.49,0.067-3.007,0.359-4.404,0.923c-0.827-1.822-2.105-3.469-3.9-4.418c-0.767-0.324-1.534-0.647-2.301-0.971
			c-1.707-0.459-3.414-0.459-5.122,0c-1.711,0.355-3.119,1.187-4.459,2.223c-0.488,0.377-0.915,0.749-1.32,1.132
			c-0.429-0.245-0.871-0.47-1.343-0.669c-0.414-0.204-0.838-0.38-1.273-0.528l-2.561-0.344c-0.988-0.057-1.411-0.041-2.829,0.332
			c-4.407,1.16-7.585,5.209-7.6,9.78c-0.009,2.583,1.097,5.207,2.892,7.059c1.187,1.225,3.023,2.367,4.691,2.738
			c1.87,0.416,3.642,0.489,5.514-0.041c1.526-0.432,3.079-1.29,4.301-2.443c2.167,1.064,4.724,1.568,7.079,0.806
			c0.71-0.23,1.386-0.528,2.024-0.887c0.542,1.742,1.495,3.376,2.75,4.631c1.007,1.084,2.199,1.85,3.577,2.298
			c1.325,0.696,2.752,1.015,4.282,0.957c2.875-0.129,5.856-1.073,7.859-3.256c1.997-2.175,3.256-4.848,3.256-7.86v-0.346
			C665.112,176.254,663.872,173.26,661.857,171.245z"/>
		<path style="fill:#FFDE03;" d="M647.672,195.47c-2.465-2.263-5.495-3.69-8.908-3.69h-1.039c-1.734-0.065-3.352,0.296-4.853,1.085
			c-1.482,0.482-2.769,1.3-3.872,2.431c-0.231-0.297-0.472-0.584-0.735-0.846c-1.671-1.671-4.412-2.929-6.812-2.822
			c-0.253,0.011-0.506,0.035-0.76,0.062c-0.683-2.566-2.72-4.714-6.164-4.714c-7.607,0-8.468,10.459-2.583,12.842
			c-0.075,0.471-0.126,0.951-0.126,1.444v0.346c0,2.47,1.075,5.065,2.821,6.812c1.671,1.671,4.412,2.929,6.812,2.822
			c1.71-0.077,3.457-0.497,4.95-1.358c0.581,1.269,1.365,2.439,2.414,3.402c2.465,2.262,5.494,3.69,8.908,3.69h1.039
			c1.734,0.065,3.352-0.296,4.854-1.085c1.562-0.508,2.913-1.376,4.054-2.605c1.228-1.141,2.097-2.492,2.605-4.054
			c0.789-1.501,1.15-3.119,1.085-4.854C651.215,201.119,650.145,197.74,647.672,195.47z"/>
		<path style="fill:#FFDE03;" d="M657.88,123.43c-0.669-2.385-1.876-4.456-3.621-6.213c-2.755-2.529-6.141-4.124-9.956-4.124h-0.346
			c-0.565-0.021-1.116,0.01-1.659,0.07c-0.169-3.085-1.229-5.993-3.459-8.223l-0.346-0.346c-2.15-2.15-5.344-3.473-8.384-3.473
			c-1.632-0.062-3.155,0.279-4.568,1.021c-1.47,0.478-2.742,1.295-3.815,2.451c-1.249,1.36-2.295,2.98-2.907,4.74
			c-0.046-0.001-0.088-0.007-0.135-0.007c-10.49,0-10.507,16.302,0,16.302c2.431,0,4.292-0.882,5.597-2.227
			c1.732,1.036,3.743,1.669,5.722,1.753c-0.095,0.657-0.151,1.325-0.125,2.016c0.167,1.248,0.335,2.495,0.503,3.743
			c0.669,2.385,1.876,4.456,3.621,6.213c2.755,2.529,6.141,4.124,9.956,4.124h0.346c1.938,0.073,3.747-0.331,5.424-1.213
			c1.745-0.568,3.256-1.538,4.531-2.911c1.373-1.275,2.343-2.786,2.911-4.531c0.882-1.678,1.286-3.486,1.213-5.424
			C658.215,125.926,658.047,124.678,657.88,123.43z"/>
		<path style="fill:#FFDE03;" d="M603.329,128.334c-1.414-1.414-3.733-2.478-5.764-2.387c-2.108,0.094-4.294,0.787-5.764,2.387
			c-1.464,1.595-2.388,3.555-2.388,5.764v0.346c0,2.09,0.909,4.286,2.388,5.764c1.414,1.414,3.733,2.478,5.764,2.387
			c2.108-0.094,4.294-0.787,5.764-2.387c1.464-1.595,2.388-3.555,2.388-5.764v-0.346
			C605.717,132.007,604.807,129.812,603.329,128.334z"/>
		<path style="fill:#FFDE03;" d="M625.674,134.724c-0.94-1.012-2.053-1.727-3.339-2.145c-1.236-0.649-2.569-0.947-3.997-0.893
			c-2.683,0.12-5.466,1.001-7.336,3.038c-1.863,2.03-3.038,4.525-3.038,7.336v0.346c0,0.584,0.065,1.173,0.172,1.759
			c-7.345,1.198-6.968,13.219,1.201,13.219c3.562,0,5.625-2.305,6.232-4.993c0.88,0.287,1.801,0.426,2.769,0.389
			c2.683-0.12,5.466-1.001,7.336-3.038c1.863-2.03,3.039-4.525,3.039-7.336v-0.346C628.712,139.4,627.555,136.606,625.674,134.724z"
			/>
		<path style="fill:#FFDE03;" d="M586.833,101.955c-2.266,0-3.621,1.399-4.093,3.083c-1.245-0.982-2.877-1.595-4.908-1.595
			c-10.49,0-10.507,16.302,0,16.302c5.632,0,8.241-4.699,7.827-9.052c0.363,0.091,0.748,0.154,1.175,0.154
			C592.555,110.847,592.564,101.955,586.833,101.955z"/>
		<path style="fill:#FFDE03;" d="M593.065,98.59c-3.815,0-3.821,5.928,0,5.928C596.879,104.518,596.885,98.59,593.065,98.59z"/>
		<path style="fill:#FFDE03;" d="M590.641,166.841c-2.861,0-2.866,4.446,0,4.446C593.502,171.287,593.507,166.841,590.641,166.841z"
			/>
		<path style="fill:#FFDE03;" d="M527.144,166.59c-0.638-1.092-1.965-1.338-3.042-0.798c-0.23,0.116-0.461,0.232-0.692,0.347
			c-1.072,0.539-1.376,2.052-0.797,3.042c0.639,1.092,1.965,1.338,3.042,0.798c0.231-0.116,0.461-0.232,0.692-0.348
			C527.419,169.093,527.723,167.58,527.144,166.59z"/>
		<path style="fill:#FFDE03;" d="M603.451,231.236c-2.861,0-2.866,4.446,0,4.446C606.312,235.682,606.317,231.236,603.451,231.236z"
			/>
		<path style="fill:#FFDE03;" d="M673.038,118.421h-0.346c-1.907,0-1.91,2.964,0,2.964h0.346
			C674.945,121.385,674.949,118.421,673.038,118.421z"/>
		<path style="fill:#FFDE03;" d="M619.376,88.993c-1.907,0-1.91,2.964,0,2.964C621.284,91.957,621.287,88.993,619.376,88.993z"/>
		<path style="fill:#FD6D0A;" d="M524.798,89.853c-2.483,1.248-3.756,4.149-2.581,6.771l0.271,0.604
			c1.096,2.446,11.336,12.595,13.865,11.465c0.815-0.364-3.339-13.033-4.513-15.654l-0.271-0.604
			C530.473,89.988,527.272,88.608,524.798,89.853z"/>
		<path style="fill:#FD6D0A;" d="M503.542,198.96c-3.796,1.515-7.458,3.802-9.637,7.226c-1.171,1.84-3.065,6.642-0.06,9.059
			c3.039,2.444,5.788,0.04,7.7-1.356C512.465,205.918,527.433,189.428,503.542,198.96z"/>
		<path style="fill:#FD6D0A;" d="M591.516,255.257c-2.868,0-6.605,15.975,0,15.975C598.11,271.232,594.458,255.257,591.516,255.257z
			"/>
		<path style="fill:#FD6D0A;" d="M636.418,270.967c-0.432-3.089-0.865-6.179-1.297-9.268c-0.193-1.381-1.939-2.109-3.151-1.789
			c-1.479,0.39-1.98,1.788-1.789,3.151c0.432,3.089,0.865,6.179,1.297,9.268c0.193,1.381,1.939,2.109,3.151,1.789
			C636.108,273.728,636.609,272.331,636.418,270.967z"/>
		<path style="fill:#FD6D0A;" d="M699.872,209.357c-1.835,0.321-9.212,1.842-10.326,2.804c-0.114,1.113,9.162,2.855,10.535,3.273
			c3.317,1.01,6.683,2.332,10.076,3.045c2.822,0.593,5.748-0.834,5.716-4.031C715.802,207.398,704.224,208.596,699.872,209.357z"/>
		<path style="fill:#FD6D0A;" d="M699.941,71.759c-3.404-4.461-12.713,2.22-15.483,7.806c-1.163,2.344-4.061,10.704-4.511,14.157
			c0,0,4.354-6.306,7.749-9.162C693.531,79.651,704.087,77.193,699.941,71.759z"/>
		<path style="fill:#FD6D0A;" d="M626.279,69.784c2.689-2.528,4.231-6.101,3.799-9.883c-0.297-2.603-3.199-3.387-4.774-1.293
			c-1.845,2.454-4.656,12.099-5.497,15.605c0,0,2.366-1.384,4.973-3.196c0.278-0.193,0.532-0.414,0.793-0.627
			C625.839,70.234,626.079,70.033,626.279,69.784z"/>
		<path style="fill:#FD6D0A;" d="M501.15,204.089c-2.096,1.134-3.946,2.618-5.505,4.422c-0.536,0.621,0.366,1.531,0.906,0.906
			c1.492-1.727,3.238-3.135,5.245-4.222C502.522,204.803,501.876,203.697,501.15,204.089z"/>
		<path style="fill:#FFDE03;" d="M503.999,201.986c-0.518,0.046-0.999,0.188-1.444,0.431c-0.278-0.004-0.565,0.032-0.863,0.174
			c-1.934,0.919-3.824,1.93-5.14,3.673c-1.107,1.466-2.119,4.01-0.761,5.645c0.761,0.917,1.702,1.056,2.609,0.792
			c0.066-0.005,0.129-0.002,0.197-0.014c4.323-0.742,5.705-5.12,8.03-8.193C507.915,202.789,505.603,201.143,503.999,201.986z"/>
		<path style="fill:#FFDE03;" d="M592.544,261.811c-0.011-0.021-0.027-0.03-0.039-0.049c-0.048-0.108-0.102-0.212-0.165-0.312
			c-0.02-0.075-0.042-0.152-0.062-0.226c-0.089-0.336-0.451-0.491-0.762-0.443c-0.124,0.001-0.248,0.031-0.347,0.083
			c-0.856,0.452-1.073,1.356-1.102,2.302c-0.812,2.36-1.156,5.849,1.398,6.233c1.312,0.197,2.275-0.798,2.494-2.009
			C594.298,265.524,593.362,263.436,592.544,261.811z"/>
		<path style="fill:#FD6D0A;" d="M635.443,261.408c-0.337-0.714-0.698-1.416-1.066-2.111c-1.45-3.354-3.146-6.585-5.384-9.543
			c-0.137-0.18-0.321-0.254-0.505-0.263c-0.378-0.299-0.943-0.086-1.044,0.313c-0.099,0.168-0.129,0.381-0.005,0.615
			c1.314,2.489,2.124,5.068,2.461,7.776c-0.033,0.072-0.06,0.148-0.06,0.237c0,0.079,0.007,0.153,0.007,0.231
			c-0.417,4.211-1.382,11.725,2.349,14.82c0.087,0.072,0.168,0.119,0.253,0.182c1.551,1.698,4.267,1.164,5.427-1.014
			C639.644,269.33,637.595,264.804,635.443,261.408z M632.311,260.271c0.315,0.96,0.602,1.933,0.845,2.928
			c0.096,0.39,0.435,0.498,0.739,0.425c0.03,0.024,0.058,0.053,0.091,0.07c0.051,0.111,0.105,0.221,0.153,0.333
			c0.005,0.034,0.014,0.067,0.019,0.101c-0.165,0.138-0.269,0.351-0.211,0.618c-0.534-1.018-1.138-1.768-1.786-1.981
			c0.011-0.057,0.012-0.107,0.022-0.163c0,0,0,0,0,0c0-0.001,0-0.001,0-0.002C632.327,261.776,632.374,261.017,632.311,260.271z
			 M633.706,270.173c-0.508,0.249-0.927,0.367-1.267,0.37c-0.4-1.409-0.821-3.777-0.569-4.619c0.044-0.148,0.093-0.254,0.143-0.34
			c0.043-0.043,0.079-0.091,0.108-0.147c0.625-0.554,1.547,2.48,1.76,3.017c0.267,0.672,0.518,1.295,0.707,1.938
			C634.334,270.353,634.047,270.286,633.706,270.173z"/>
		<path style="fill:#FFDE03;" d="M637.149,266.945c-0.509-1.553-1.539-2.837-2.696-3.959c-0.559-0.542-1.381,0.23-0.977,0.802
			c-0.075,0.162-0.091,0.354,0.013,0.556c0.503,0.982,0.926,2.001,1.193,3.075c0.22,0.883,0.167,1.865,0.459,2.722
			c0.239,0.7,0.947,1.697,1.764,1.063C637.926,270.412,637.479,267.95,637.149,266.945z"/>
		<path style="fill:#FD6D0A;" d="M711.83,211.991c-2.664-1.199-5.694-1.129-8.563-1.35c-2.466-0.19-2.454,3.654,0,3.843
			c2.078,0.16,4.688-0.046,6.624,0.825C712.127,216.316,714.084,213.005,711.83,211.991z"/>
		<path style="fill:#FFDE03;" d="M713.569,212.301c-0.666-1.273-2.123-2.305-3.609-1.975c-0.293,0.065-0.549,0.188-0.786,0.334
			c-0.734,0.303-1.239,0.99-1.255,1.768c-0.124,0.477-0.157,0.984-0.068,1.476c0.273,1.517,1.631,2.655,3.19,2.598
			c0.115-0.004,0.225-0.034,0.336-0.059c0.246,0.033,0.502,0.025,0.756-0.025C714.054,216.039,714.342,213.779,713.569,212.301z"/>
		<path style="fill:#FFDE03;" d="M698.002,73.626c-0.042-0.936-0.853-2.053-1.921-1.921c-1.551,0.191-2.992,0.783-4.009,2.02
			c-0.658,0.801-0.784,1.933,0,2.717c0.679,0.679,2.055,0.806,2.717,0c0.124-0.151,0.256-0.29,0.393-0.43
			c0.055-0.048,0.069-0.06,0.093-0.082c0.071-0.048,0.143-0.095,0.219-0.137c0.073-0.044,0.148-0.083,0.224-0.121
			c0.011-0.004,0.007-0.002,0.022-0.007c0.075-0.026,0.684-0.16,0.341-0.117C697.075,75.425,698.053,74.752,698.002,73.626z"/>
		<path style="fill:#FFDE03;" d="M627.872,58.7c-0.956-0.218-2.152,0.288-2.364,1.342c-0.138,0.687-0.276,1.373-0.413,2.06
			c-0.197,0.982-2.34,6.517-1.279,6.758c0.956,0.218,4.773-4.683,4.985-5.737c0.138-0.687,0.276-1.373,0.413-2.06
			C629.412,60.081,628.933,58.941,627.872,58.7z"/>
		<path style="fill:#FFDE03;" d="M528.468,91.851c-0.437-0.87-1.595-1.485-2.539-0.968c-0.796,0.435-1.502,0.995-1.948,1.799
			c-0.503,0.906-0.467,2.029,0.446,2.681c0.77,0.55,2.175,0.467,2.681-0.446c0.087-0.157,0.187-0.336,0.311-0.474
			c0.003,0.031,0.318-0.183,0.081-0.053C528.38,93.909,528.96,92.83,528.468,91.851z"/>
	</g>
	<g>
		<path style="fill:#5C5B56;" d="M216.501,303.523c-2.271-2.116-5.192-3.566-8.283-4.246c0-0.027,0.004-0.054,0.004-0.081
			c0.027-4.954-3.53-9.341-8.27-10.584c-1.785-0.468-3.747-0.46-5.544-0.007c-3.135-7.652-13.336-13.078-21.533-10.942
			c-5.594,1.458-10.622,5.676-12.648,11.153c-0.694,0.097-1.386,0.217-2.069,0.378c-5.238,1.239-9.775,4.893-11.62,9.927
			c-0.078,0.106-0.162,0.206-0.238,0.315c-1.177,1.691-1.764,3.635-1.875,5.618c-0.785,3.924,0.125,8.087,3.185,11.277
			c2.34,2.44,5.915,3.948,9.293,4.015c2.327,0.046,4.323-0.444,6.321-1.168c-1.154,7.991,4.106,16.368,12.424,18.435
			c6.066,1.507,13.201-1.106,17.648-5.77c0.749,0.296,1.528,0.478,2.348,0.515c1.306,0.293,2.612,0.234,3.919-0.176
			c1.279-0.304,2.393-0.89,3.342-1.759c0.827-0.536,1.516-1.211,2.073-2.017c5.146,1.487,11.572-0.693,14.448-5.375
			C223.107,317.036,221.55,308.225,216.501,303.523z"/>
		<path style="fill:#5C5B56;" d="M162.581,344.416c5.014-8.974-0.541-25.657-12.359-25.821c-6.798-2.311-14.41-0.824-19.399,3.962
			c-0.184-0.546-0.391-1.083-0.628-1.61c1.222-0.702,2.376-1.541,3.425-2.534c3.242-3.067,4.788-7.234,5.082-11.603
			c0.052-0.776-0.033-1.544-0.211-2.293c-0.112-6.664-4.452-13.24-13.044-13.24c-2.385,0-4.431,0.522-6.163,1.399
			c-2.375-2.125-5.27-3.464-8.528-3.464h-0.253c-1.691-0.064-3.268,0.289-4.732,1.058c-1.523,0.495-2.84,1.342-3.953,2.54
			c-1.198,1.113-2.044,2.43-2.54,3.953c-0.616,1.172-0.952,2.421-1.034,3.739c-0.219-0.022-0.438-0.051-0.657-0.069
			c-1.438-0.054-2.778,0.246-4.023,0.899c-1.294,0.421-2.414,1.141-3.36,2.159c-1.018,0.946-1.738,2.066-2.159,3.36
			c-0.654,1.244-0.953,2.585-0.899,4.023c0.004,0.093,0.017,0.186,0.023,0.279c-0.176,0.041-0.354,0.073-0.524,0.137
			c-1.518,0.361-2.841,1.057-3.968,2.089c-1.27,0.823-2.272,1.914-3.005,3.274c-0.853,1.339-1.314,2.785-1.385,4.339
			c-0.347,1.551-0.278,3.102,0.208,4.653c0.727,2.246,1.992,4.417,3.834,5.934c-0.941,9.707,6.124,19.003,17.337,17.83
			c3.022-0.316,5.638-1.356,7.8-2.891c0.384,0.057,0.749,0.109,1.06,0.153c0.857,0.12,4.584,1.04,6.705,0.962
			c3.808-0.139,7.788-1.64,10.577-4.273c0.231-0.218,0.429-0.466,0.645-0.697c3.724,10.62,15.766,24.506,27.658,16.035
			c2.295-1.635,3.86-3.982,4.616-6.543C160.7,349.895,162.092,347.229,162.581,344.416z"/>
		<path style="fill:#F44901;" d="M158.495,336.125c4.191-9.386-2.834-25.506-14.619-24.612c-6.978-1.694-14.426,0.468-18.967,5.681
			c-0.232-0.527-0.486-1.044-0.769-1.548c1.154-0.808,2.228-1.747,3.185-2.83c2.955-3.344,4.121-7.633,4.024-12.011
			c-0.017-0.778-0.171-1.535-0.415-2.265c-0.707-6.627-5.618-12.789-14.176-12.02c-2.375,0.213-4.367,0.916-6.013,1.945
			c-2.556-1.904-5.559-2.978-8.803-2.687l-0.252,0.023c-1.69,0.088-3.23,0.58-4.619,1.477c-1.472,0.63-2.709,1.591-3.71,2.883
			c-1.093,1.215-1.819,2.603-2.176,4.164c-0.508,1.223-0.732,2.496-0.695,3.816c-0.22-0.003-0.44-0.012-0.661-0.01
			c-1.437,0.075-2.745,0.493-3.926,1.255c-1.252,0.535-2.303,1.352-3.154,2.451c-0.929,1.033-1.546,2.213-1.85,3.54
			c-0.54,1.298-0.718,2.66-0.536,4.087c0.012,0.092,0.033,0.184,0.047,0.276c-0.171,0.056-0.346,0.104-0.509,0.183
			c-1.48,0.495-2.735,1.307-3.765,2.435c-1.192,0.933-2.092,2.11-2.701,3.53c-0.729,1.41-1.06,2.892-0.991,4.445
			c-0.207,1.576,0.001,3.115,0.624,4.616c0.925,2.172,2.38,4.221,4.349,5.567c-0.069,9.752,7.799,18.379,18.862,16.208
			c2.982-0.585,5.494-1.855,7.511-3.577c0.388,0.023,0.755,0.042,1.069,0.057c0.865,0.043,4.659,0.626,6.764,0.359
			c3.781-0.48,7.61-2.33,10.152-5.202c0.211-0.238,0.385-0.502,0.58-0.752c4.659,10.244,17.895,22.998,28.981,13.496
			c2.139-1.833,3.488-4.311,4.012-6.93C157.111,341.75,158.259,338.971,158.495,336.125z"/>
		<path style="fill:#5C5B56;" d="M186.893,384.344c-3.031-11.029-15.382-11.993-24.075-7.12c-0.489,0.162-0.973,0.338-1.449,0.535
			c-1.13-2.784-3.05-5.273-5.717-6.986c-8.019-5.152-18.403-1.982-23.624,5.487c-4.367,6.248-5.026,14.996-0.004,20.561
			c0.201,0.927,0.49,1.835,0.85,2.72c-0.185,0.708-0.275,1.442-0.246,2.208c0.114,2.541,0.949,5.177,2.878,6.948
			c1.923,1.765,4.286,2.878,6.948,2.878h0.253c1.733,0,3.52-0.528,5.051-1.432c1.511,0.181,3.039,0.223,4.547,0.105
			c2.438-0.191,4.848-0.686,7.21-1.319c0.491,1.436,1.289,2.778,2.332,3.82c0.89,0.958,1.944,1.636,3.162,2.032
			c1.171,0.615,2.433,0.897,3.786,0.846c2.542-0.114,5.177-0.949,6.949-2.878c1.765-1.922,2.878-4.286,2.878-6.948v-0.253
			c0-0.891-0.144-1.797-0.4-2.676C184.503,399.701,189.111,392.417,186.893,384.344z"/>
		<path style="fill:#5C5B56;" d="M140.126,370.756c-0.383-5.145-3.63-9.177-8.048-10.969c-0.26-3.633-2.361-7.1-6.839-8.468
			c-3.515-1.074-7.229-1.01-10.582,0.13c-6.555-3.046-14.192-3.013-20.811,1c-8.768,5.316-12.074,16.047-10.397,25.798
			c0.771,4.483,3.291,8.609,6.72,11.328c1.833,3.407,4.615,6.28,8.228,8.03c8.897,4.311,21.676,1.56,27.348-6.74
			c0.286-0.02,0.569-0.03,0.86-0.071c5.136-0.72,9.107-4.901,10.135-9.742C139.058,378.236,140.438,374.95,140.126,370.756z"/>
		<path style="fill:#F44901;" d="M133.876,374.922c-0.383-5.145-3.63-9.177-8.048-10.969c-0.26-3.633-2.361-7.1-6.839-8.468
			c-3.515-1.074-7.229-1.01-10.582,0.13c-6.555-3.046-14.192-3.013-20.811,1c-8.768,5.316-12.074,16.047-10.397,25.798
			c0.771,4.483,3.291,8.609,6.72,11.328c1.833,3.407,4.615,6.28,8.228,8.03c8.897,4.311,21.676,1.56,27.348-6.74
			c0.286-0.02,0.569-0.03,0.86-0.071c5.136-0.72,9.107-4.901,10.135-9.742C132.809,382.402,134.188,379.116,133.876,374.922z"/>
		<path style="fill:#F44901;" d="M188.629,395.281c-3.031-11.029-15.382-11.994-24.075-7.12c-0.489,0.162-0.973,0.337-1.449,0.535
			c-1.13-2.784-3.051-5.273-5.717-6.986c-8.019-5.152-18.403-1.982-23.624,5.487c-4.367,6.248-5.026,14.996-0.004,20.561
			c0.201,0.926,0.49,1.835,0.85,2.719c-0.185,0.708-0.275,1.442-0.246,2.208c0.114,2.541,0.949,5.177,2.878,6.948
			c1.923,1.765,4.286,2.878,6.948,2.878h0.253c1.733,0,3.52-0.528,5.051-1.432c1.511,0.181,3.039,0.223,4.547,0.105
			c2.438-0.191,4.848-0.686,7.21-1.319c0.491,1.436,1.289,2.778,2.332,3.82c0.89,0.958,1.944,1.635,3.162,2.032
			c1.171,0.615,2.433,0.897,3.786,0.846c2.541-0.114,5.177-0.949,6.949-2.878c1.765-1.923,2.878-4.286,2.878-6.948v-0.253
			c0-0.891-0.143-1.797-0.4-2.676C186.238,410.638,190.847,403.354,188.629,395.281z"/>
		<path style="fill:#5C5B56;" d="M226.99,327.732c-6.735-4.174-15.109-3.314-20.673,1.621c-0.27-0.125-0.547-0.237-0.835-0.331
			c-1.171-0.615-2.433-0.897-3.786-0.846c-1.774,0.005-3.427,0.453-4.96,1.342c-0.431,0.211-0.816,0.495-1.154,0.851
			c-0.402,0.266-0.777,0.563-1.127,0.89c-0.748,0.768-1.307,1.605-1.766,2.525c-1.309-0.635-2.701-1.121-4.156-1.396
			c-8.184-1.552-14.639,2.847-17.622,9.272c-7.419-0.012-14.628,6.311-15.874,14.484c-0.858,5.624,1.785,11.802,7.269,13.943
			c0.011,0.023,0.019,0.047,0.031,0.071c3.79,7.996,12.706,11.407,21.636,11.889c0.053,0.963,0.201,1.929,0.51,2.886
			c1.446,4.476,4.855,7.931,9.032,9.926c3.549,1.695,7.198,2.374,10.58,2.033c3.549,1.44,7.646,0.492,10.722-2.123
			c6.974-5.927,11.758-15.368,6.968-24.242c-0.394-0.731-0.856-1.41-1.353-2.056c1.17-1.631,1.699-3.691,1.693-5.71
			c4.217-1.355,7.951-3.708,10.548-8.071C237.857,345.978,235.901,333.255,226.99,327.732z"/>
		<path style="fill:#F44901;" d="M232.255,331.622c-6.735-4.174-15.109-3.314-20.673,1.621c-0.27-0.125-0.547-0.237-0.835-0.331
			c-1.171-0.615-2.433-0.897-3.786-0.846c-1.774,0.005-3.427,0.453-4.96,1.342c-0.431,0.211-0.816,0.495-1.154,0.851
			c-0.402,0.266-0.777,0.563-1.127,0.89c-0.748,0.768-1.307,1.605-1.766,2.525c-1.309-0.635-2.701-1.121-4.155-1.396
			c-8.184-1.552-14.639,2.847-17.622,9.272c-7.419-0.012-14.628,6.311-15.874,14.484c-0.858,5.624,1.785,11.802,7.269,13.943
			c0.011,0.023,0.019,0.047,0.03,0.071c3.79,7.996,12.706,11.407,21.636,11.889c0.053,0.963,0.201,1.929,0.51,2.886
			c1.446,4.476,4.854,7.931,9.032,9.926c3.549,1.695,7.198,2.374,10.58,2.033c3.549,1.44,7.646,0.492,10.722-2.123
			c6.974-5.927,11.758-15.368,6.968-24.242c-0.394-0.731-0.856-1.41-1.353-2.056c1.17-1.631,1.699-3.691,1.694-5.71
			c4.217-1.355,7.951-3.708,10.548-8.071C243.122,349.868,241.167,337.145,232.255,331.622z"/>
		<path style="fill:#F44901;" d="M215.676,294.697c-2.271-2.116-5.192-3.566-8.283-4.246c0-0.027,0.004-0.054,0.004-0.081
			c0.027-4.954-3.531-9.341-8.27-10.584c-1.785-0.468-3.747-0.46-5.544-0.007c-3.135-7.652-13.336-13.078-21.533-10.942
			c-5.594,1.458-10.622,5.676-12.648,11.153c-0.694,0.097-1.386,0.217-2.069,0.378c-5.238,1.239-9.775,4.893-11.62,9.927
			c-0.078,0.106-0.162,0.206-0.238,0.315c-1.177,1.691-1.764,3.634-1.875,5.618c-0.785,3.924,0.125,8.087,3.185,11.277
			c2.34,2.44,5.915,3.948,9.293,4.015c2.327,0.046,4.323-0.444,6.321-1.168c-1.154,7.991,4.106,16.368,12.424,18.435
			c6.066,1.507,13.201-1.106,17.648-5.77c0.749,0.296,1.528,0.478,2.348,0.515c1.306,0.293,2.612,0.234,3.919-0.175
			c1.279-0.304,2.393-0.89,3.342-1.759c0.827-0.536,1.516-1.211,2.073-2.017c5.146,1.487,11.572-0.693,14.448-5.375
			C222.282,308.211,220.725,299.4,215.676,294.697z"/>
		<path style="fill:#FF6C0C;" d="M102.61,292.358c-2.743,1.433-4.974,3.624-6.46,6.352c-0.609,1.117-1.113,2.456-1.533,3.666
			c-0.099,0.318-0.185,0.639-0.278,0.959c-2.205,0.804-4.256,2.42-5.19,4.334c-3.559,7.295-6.929,17.37-0.214,24.002
			c3.153,3.114,7.691,4.266,11.917,2.94c5.251-1.647,7.476-6.041,8.023-11.205c0.178-1.68-0.257-3.283-1.087-4.691
			c0.501-0.461,0.986-0.945,1.44-1.472c1.522-1.767,2.328-3.409,3.125-5.599c0.317-0.883,0.588-1.78,0.814-2.691
			C123.33,302.79,113.594,286.621,102.61,292.358z"/>
		<path style="fill:#FF6C0C;" d="M152.124,326.82c-1.021-2.504-2.037-4.658-4.133-6.46c-2.286-1.966-4.752-3.111-7.719-3.51
			c-4-0.537-7.624,0.661-10.54,3.002c-0.601-0.473-1.285-0.834-2.042-1.007c-1.502-0.342-3.443-0.352-4.732,0.619
			c-0.325,0.245-0.666,0.457-1.017,0.652c-0.17,0.054-0.334,0.122-0.508,0.166c-1.479,0.378-2.905,1.514-3.67,2.822
			c-0.77,1.316-1.097,3.257-0.619,4.732c0.481,1.486,1.402,2.92,2.822,3.67c1.478,0.781,3.088,1.04,4.732,0.619
			c0.295-0.075,0.59-0.171,0.885-0.266c0.063,0.174,0.117,0.353,0.188,0.522c1.174,2.782,3.282,4.636,6.125,5.6
			c0.096,0.054,0.186,0.12,0.281,0.176c0.032,0.031,0.059,0.068,0.09,0.099c0.17,0.286,0.333,0.576,0.483,0.881
			c0.949,1.938,2.722,3.341,4.769,4.127c0.158,2.937,2.125,5.755,5.917,5.755c5.111,0,6.917-5.134,5.419-8.763
			c1.276-1.621,1.972-3.525,2.066-5.526c0.069-0.115,0.146-0.223,0.209-0.342C152.284,332.214,153.099,329.212,152.124,326.82z"/>
		<path style="fill:#FF6C0C;" d="M123.567,368.017c-2.411-2.506-5.308-4.924-8.765-5.797c-3.865-0.976-7.952-0.616-11.344,1.572
			c-2.047,1.32-3.603,3.153-4.593,5.247c-0.619-0.448-1.291-0.805-2.031-1.046c-2.069-0.873-4.182-1.029-6.398-0.495
			c-0.487,0.117-0.974,0.234-1.461,0.352c-5,1.204-8.46,7.152-6.863,12.088c0.889,2.748,2.723,4.859,5.04,6.057
			c1.306,1.45,2.901,2.622,4.775,3.413c4.154,1.753,9.712,1.264,13.003-2.095c2.295,1.442,5.13,2.008,7.745,1.162
			c2.216-0.717,4.049-2.074,5.311-3.811c2.109-0.26,4.12-1.159,5.58-2.75C127.225,377.929,127.378,371.976,123.567,368.017z"/>
		<path style="fill:#FF6C0C;" d="M172.096,408.303c-0.248-0.222-0.511-0.416-0.767-0.621c2.359-3.767,2.035-9.075-1.299-12.252
			c-3.15-3.002-6.944-4.25-11.259-3.692c-1.071,0.138-2.455,0.328-3.66,0.729c-1.253-4.045-4.856-7.113-9.354-7.113
			c-5.159,0-10.04,4.499-9.827,9.827c0.133,3.314,0.748,6.367,2.536,9.167c1.316,2.062,3.073,3.416,5.221,4.419
			c0.102,0.135,0.237,0.297,0.444,0.515c1.689,3.148,7.481,4.056,10.433,3.875c1.626-0.099,3.088-0.47,4.596-1.044
			c0.079-0.031,0.156-0.068,0.235-0.102c0.56,1.659,1.855,3.021,3.703,3.543c0.152,0.043,0.296,0.105,0.445,0.154
			c0.317,0.168,0.625,0.354,0.922,0.556c1.058,0.891,2.303,1.475,3.722,1.475c1.356,0,2.975-0.602,3.908-1.619
			c0.967-1.053,1.685-2.436,1.619-3.908C173.651,410.794,173.189,409.28,172.096,408.303z"/>
		<path style="fill:#FF6C0C;" d="M218.441,365.83c-1.849-4.972-6.651-8.357-12.088-6.863c-1.769,0.486-3.421,1.586-4.709,3.028
			c-0.033-0.001-0.065-0.006-0.098-0.007c-0.79-0.032-2.49-0.367-2.865-0.248c-0.683-0.571-1.513-1.292-2.147-1.65
			c-3.691-2.086-8.789-2.328-12.388,0.093c-0.02-0.019-0.039-0.04-0.059-0.059c-0.085-0.144-0.189-0.276-0.264-0.429
			c-1.275-2.603-5.18-3.519-7.562-1.983c-2.667,1.72-3.347,4.779-1.983,7.563c0.949,1.936,2.695,3.655,4.707,4.713
			c0.124,1.285,0.527,2.587,1.273,3.862c1.647,2.816,5.214,4.866,8.676,4.951c0.629,0.434,1.266,0.818,1.989,1.181
			c1.986,0.997,5.392,2.1,7.883,1.805c1.011,2.681,2.588,5.122,5.081,6.676c5.809,3.621,13.207,1.04,15.757-5.243
			C221.799,377.909,220.377,371.034,218.441,365.83z"/>
		<path style="fill:#FF6C0C;" d="M229.497,341.531c-0.147-0.341-0.31-0.679-0.504-1.01c-1.193-2.038-3.53-3.982-5.873-4.516
			c-2.516-0.573-5.339-0.449-7.572,0.991c-0.565,0.364-1.116,0.786-1.635,1.25c-1.693,0.673-3.372,1.904-4.44,3.386
			c-0.509-0.138-1.037-0.244-1.594-0.285c-2.361-0.172-4.705-0.11-7.054,0.187c-1.86,0.235-3.397,0.598-4.777,1.979
			c-1.172,1.172-2.054,3.094-1.979,4.777c0.147,3.28,3.001,7.23,6.756,6.756c2.349-0.297,4.693-0.359,7.054-0.187
			c0.909,0.066,1.807-0.123,2.638-0.495c0.575,0.588,1.222,1.111,1.962,1.531c1.678,0.953,3.663,1.514,5.637,1.531
			c1.839,0.561,3.821,0.644,5.604,0.063c2.595-0.845,4.762-2.424,6.141-4.824C231.88,349.152,231.618,344.784,229.497,341.531z"/>
		<path style="fill:#FF6C0C;" d="M202.376,293.814c-4.982-2.914-10.039-0.767-13.285,3.331c-0.407,0.047-0.798,0.099-1.145,0.146
			c-1.148,0.154-2.332,0.488-3.436,0.995c-4.267-1.464-9.381,0.42-11.684,4.358c-2.744,4.691-1.001,10.645,3.525,13.444
			c2.813,1.74,5.933,2.952,9.288,2.833c1.999-0.071,4.057-0.643,5.811-1.615c0.089-0.058,0.173-0.124,0.261-0.183
			c0.275,0.036,0.549,0.074,0.824,0.11c2.143-0.031,4.227-0.631,6.046-1.729c3.153-1.902,5.124-5.377,7.32-8.244
			C209.132,303.043,206.553,296.257,202.376,293.814z"/>
		<path style="fill:#FF6C0C;" d="M185.173,280.583c-0.772-2.387-2.245-4.654-4.516-5.872c-1.75-0.939-3.505-1.42-5.493-1.495
			c-1.848-0.07-2.818,0.327-4.335,0.968c-1.446,0.61-2.407,1.177-3.61,2.373c-0.512,0.663-1.024,1.326-1.536,1.989
			c-0.06,0.072-0.109,0.151-0.148,0.236c-0.33,0.782-0.66,1.565-0.991,2.347c-0.039,0.086-0.065,0.177-0.078,0.271
			c-0.33,1.052-0.421,2.105-0.295,3.157c-0.326-0.042-0.655-0.067-0.989-0.052c-1.896,0.085-3.899,0.705-5.211,2.159
			c-0.645,0.715-1.291,1.431-1.936,2.146c-0.751,0.832-1.343,1.773-1.718,2.798c-0.187,0.157-0.366,0.326-0.533,0.509
			c-1.324,1.442-2.159,3.214-2.159,5.211v0.37c0,1.89,0.822,3.875,2.159,5.211c1.278,1.278,3.375,2.241,5.211,2.159
			c1.906-0.085,3.883-0.711,5.211-2.159c0.891-0.971,1.552-2.094,1.895-3.332c0.121-0.112,0.245-0.222,0.356-0.345
			c0.645-0.715,1.291-1.431,1.936-2.146c1.007-1.116,1.738-2.424,2.023-3.875c0.294,0.109,0.598,0.202,0.912,0.276
			c2.515,0.573,5.339,0.449,7.572-0.99c0.004-0.003,0.007-0.005,0.011-0.008c1.026-0.331,1.944-0.849,2.739-1.576
			c1.07-0.693,1.913-1.612,2.531-2.757C185.387,285.875,185.991,283.112,185.173,280.583z"/>
		<path style="fill:#FF9823;" d="M108.376,302.038c-1.933,0.087-3.601,1.34-4.118,3.138c-0.819-0.678-1.761-1.196-2.812-1.436
			c-0.707-0.095-1.415-0.19-2.122-0.285c-1.441,0.005-2.784,0.368-4.03,1.09c-0.11,0.055-0.219,0.11-0.329,0.165
			c-1.723,0.861-3.171,2.962-3.669,4.772c-0.333,1.061-0.38,2.122-0.143,3.184c0.046,1.023,0.347,1.976,0.889,2.863
			c-0.728,0.278-1.406,0.688-1.894,1.22c-0.967,1.053-1.685,2.436-1.619,3.909c0.066,1.466,0.561,2.851,1.619,3.909l0.164,0.165
			c1.002,1.002,2.491,1.619,3.909,1.619c1.356,0,2.975-0.602,3.908-1.619c0.967-1.053,1.685-2.436,1.619-3.908
			c-0.02-0.435-0.09-0.857-0.188-1.271c1.227-0.087,2.384-0.426,3.464-1.053c0.11-0.055,0.219-0.11,0.329-0.164
			c1.723-0.861,3.171-2.962,3.669-4.772c0.306-0.974,0.359-1.949,0.184-2.923c0.376,0.108,0.764,0.18,1.171,0.162
			c2.329-0.104,4.299-1.889,4.299-4.299v-0.164C112.675,304.088,110.698,301.934,108.376,302.038z"/>
		<path style="fill:#FF9823;" d="M146.791,323.886c-1.17-1.074-2.707-1.872-4.343-1.799c-1.235,0.055-2.416,0.388-3.428,1.057
			c-0.661-1.572-2.085-2.791-4.309-2.791c-4.527,0-5.8,5.025-3.844,7.886c-0.844,0.342-1.625,0.842-2.25,1.467
			c-1.172,1.172-2.054,3.094-1.979,4.777c0.078,1.747,0.652,3.559,1.979,4.777c1.322,1.213,2.947,1.979,4.777,1.979h0.165
			c1.732,0,3.552-0.754,4.777-1.979c1.172-1.172,2.054-3.094,1.979-4.777c-0.004-0.094-0.016-0.188-0.023-0.281
			c0.633,0.233,1.302,0.364,1.991,0.333c1.629-0.073,3.167-0.623,4.343-1.799c0.055-0.055,0.11-0.11,0.165-0.165
			c1.114-1.114,1.799-2.768,1.799-4.343C148.589,326.722,147.92,324.923,146.791,323.886z"/>
		<path style="fill:#FF9823;" d="M206.421,300.632c-1.442-1.324-3.214-2.159-5.211-2.159h-0.329c-1.89,0-3.875,0.822-5.211,2.159
			c-1.278,1.278-2.241,3.375-2.159,5.211c0.029,0.646,0.126,1.298,0.29,1.932c-0.971,0.095-1.94,0.452-2.741,1.014
			c-0.494-0.206-1.056-0.332-1.701-0.332c-5.532,0-5.542,8.598,0,8.598c0.309,0,0.595-0.036,0.869-0.086
			c0.058,0.06,0.098,0.133,0.16,0.19c1.081,0.993,2.411,1.619,3.908,1.619h0.165c1.417,0,2.906-0.617,3.908-1.619
			c0.959-0.959,1.681-2.532,1.619-3.909c-0.001-0.034-0.01-0.068-0.012-0.102c0.296,0.038,0.596,0.065,0.904,0.065h0.329
			c1.89,0,3.875-0.822,5.211-2.159c1.278-1.278,2.241-3.375,2.159-5.211C208.494,303.937,207.868,301.961,206.421,300.632z"/>
		<path style="fill:#FF9823;" d="M178.989,276.734h-0.165c-0.887,0-1.754,0.283-2.514,0.745c-0.08-0.105-0.154-0.213-0.25-0.31
			c-0.839-0.85-1.86-1.439-3.003-1.776c-1.54-0.454-3.414,0.548-3.778,2.145c-0.375,1.647,0.495,3.291,2.145,3.777
			c0.035,0.011,0.048,0.014,0.073,0.022c0.027,0.015,0.056,0.028,0.083,0.044c0.045,0.044,0.094,0.085,0.137,0.131
			c0.593,0.601,1.451,0.897,2.294,0.876c0.428,2.324,2.32,4.173,4.813,4.173h0.165c2.57,0,5.032-2.26,4.913-4.913
			C183.783,278.986,181.743,276.734,178.989,276.734z"/>
		<path style="fill:#FF9823;" d="M166.973,289.244c-1.609,0-2.804,0.64-3.595,1.588c-0.717-0.345-1.494-0.556-2.331-0.556h-0.165
			c-1.417,0-2.906,0.616-3.908,1.619c-0.959,0.959-1.681,2.532-1.619,3.909c0.064,1.43,0.533,2.912,1.619,3.908
			c1.081,0.993,2.411,1.619,3.908,1.619h0.165c1.417,0,2.906-0.617,3.909-1.619c0.241-0.241,0.467-0.521,0.669-0.827
			c0.415,0.109,0.856,0.186,1.348,0.186C173.296,299.07,173.306,289.244,166.973,289.244z"/>
		<path style="fill:#FF9823;" d="M178.659,299.075c-5.533,0-5.542,8.598,0,8.598C184.192,307.673,184.201,299.075,178.659,299.075z"
			/>
		<path style="fill:#FF9823;" d="M226.89,344.356c-0.338-0.31-0.705-0.597-1.093-0.854c0.227-0.433,0.41-0.874,0.526-1.297
			c0.445-1.617,0.244-3.77-0.681-5.206c-0.93-1.443-2.315-2.712-4.037-3.105c-1.839-0.419-3.513-0.165-5.206,0.681
			c-0.11,0.055-0.219,0.11-0.329,0.165c-1.458,0.729-2.683,2.507-3.105,4.037c-0.328,1.19-0.298,2.667,0.105,3.938
			c-0.595,0.267-1.127,0.644-1.574,1.1c-0.056-0.017-0.116-0.027-0.173-0.043c-0.419-1.344-1.535-2.44-3.365-2.44
			c-2.268,0-3.441,1.687-3.54,3.447c-0.719,0.044-1.419,0.316-1.923,0.865c-1.125,1.226-1.214,3.129,0,4.343l0.165,0.165
			c1.137,1.137,3.221,1.222,4.343,0c0.129-0.141,0.241-0.293,0.343-0.449c0.661,0.787,1.621,1.304,2.753,1.304h0.329
			c0.397,0,0.785-0.087,1.159-0.218c0.896,0.921,2.124,1.506,3.45,1.447c0.271-0.012,0.534-0.057,0.794-0.108
			c0.333,0.747,0.783,1.434,1.342,1.947c1.287,1.182,2.978,2.059,4.777,1.979c1.792-0.08,3.484-0.686,4.777-1.979
			c0.055-0.055,0.11-0.11,0.165-0.165c1.225-1.225,1.979-3.045,1.979-4.777C228.869,347.476,228.133,345.496,226.89,344.356z"/>
		<path style="fill:#FF9823;" d="M214.647,376.347c-0.174-0.161-0.368-0.282-0.556-0.413c0.758-0.966,1.2-2.189,1.12-3.675
			c-0.19-3.547-3.581-5.676-6.899-5.454c-0.913,0.061-1.789,0.302-2.612,0.703c-0.149,0.073-0.444,0.177-0.68,0.273
			c-0.255,0.045-0.507,0.118-0.753,0.232c-0.248-0.014-0.491-0.03-0.73-0.049c-0.033-0.179-0.078-0.357-0.134-0.532
			c-0.427-1.321-1.258-2.659-2.54-3.303c-0.11-0.055-0.219-0.11-0.329-0.165c-1.333-0.67-2.786-0.963-4.259-0.557
			c-0.579,0.159-1.176,0.454-1.719,0.833v-0.128c0-1.417-0.617-2.906-1.619-3.909c-0.959-0.959-2.532-1.681-3.908-1.619
			c-1.43,0.064-2.912,0.534-3.909,1.619c-0.993,1.081-1.619,2.411-1.619,3.909v0.329c0,1.417,0.617,2.906,1.619,3.908
			c0.119,0.119,0.259,0.229,0.396,0.339c-0.66,0.736-1.126,1.648-1.261,2.659c-0.514,3.825,3.621,6.353,6.974,4.939
			c0.293-0.124,0.571-0.267,0.84-0.421c0.021,0.235,0.065,0.473,0.142,0.711c0.588,1.816,2.576,3.228,4.533,2.574
			c0.164-0.055,0.329-0.11,0.494-0.165c0.573-0.192,1.093-0.528,1.53-0.944c0.33,0.092,0.668,0.153,1.02,0.151
			c0.812,2.498,1.461,4.805,3.847,6.564c2.698,1.99,6.63,2.382,9.566,0.611C216.392,383.442,217.602,379.071,214.647,376.347z"/>
		<path style="fill:#FF9823;" d="M152.227,394.372c0-1.356-0.602-2.975-1.619-3.908c-1.053-0.967-2.436-1.685-3.908-1.619
			c-1.383,0.062-2.99,0.506-3.908,1.619c-1.244,1.508-2.289,3.367-2.071,5.413c0.161,1.507,0.509,2.799,1.619,3.909
			c0.959,0.959,2.532,1.681,3.908,1.619c1.43-0.064,2.912-0.534,3.908-1.619c0.804-0.875,1.537-2.087,1.625-3.322
			C152.063,395.829,152.227,395.146,152.227,394.372z"/>
		<path style="fill:#FF9823;" d="M169.881,400.973c-0.91-1.495-2.457-2.511-4.079-3.152c-0.198-2.111-2.064-4.035-4.26-3.937
			c-2.064,0.092-3.839,1.507-4.218,3.505c-1.043,0.465-2.049,0.969-3.005,1.634c-1.2,0.834-2.141,1.855-2.54,3.303
			c-0.364,1.323-0.2,3.085,0.557,4.259c0.761,1.18,1.894,2.219,3.303,2.54c1.385,0.316,3.048,0.285,4.259-0.557
			c0.286-0.199,0.583-0.378,0.882-0.553c0.348,1.792,1.691,3.356,4.053,3.356c2.228,0,3.544-1.399,3.979-3.064
			c0.605-0.534,1.1-1.213,1.448-2.038C171.003,404.507,170.873,402.602,169.881,400.973z"/>
		<path style="fill:#FF9823;" d="M115.959,364.944c-2.019-0.042-3.972,1.289-4.682,3.154c-0.826,0.364-1.632,0.935-1.998,1.747
			c-0.057,0.126-0.139,0.233-0.205,0.351c-0.1,0.096-0.187,0.206-0.298,0.295l0.229-0.177c-0.001,0.001-0.002,0.003-0.003,0.005
			c-0.693,0.58-1.232,1.25-1.489,2.182c-0.283,1.029-0.155,2.399,0.433,3.313c0.147,0.228,0.312,0.448,0.493,0.655
			c-5.995,1.076-5.648,10.947,1.089,10.947c3.077,0,4.818-2.069,5.235-4.417c1.619,0.146,3.3-0.51,4.11-2.049
			c0.149-0.283,0.298-0.565,0.446-0.848c0.762-1.448,0.707-3.307-0.189-4.645c1.014-0.517,1.821-1.414,2.164-2.622
			C122.298,369.294,119.875,365.025,115.959,364.944z"/>
		<path style="fill:#FF9823;" d="M97.371,375.501c-0.749-1.121-1.539-2.178-2.812-2.866c-2.864-1.547-5.992-1.113-8.403,1.018
			c-2.173,1.921-2.108,5.882,0,7.817c0.892,0.819,1.912,1.304,2.961,1.483c0.136,0.184,0.276,0.366,0.438,0.54
			c1.29,1.392,2.952,2.099,4.842,2.143c2.893,0.067,5.659-2.59,5.527-5.527C99.837,378.159,98.865,376.483,97.371,375.501z"/>
		<path style="fill:#FF9823;" d="M100.519,358.685c-0.696-0.525-1.55-0.849-2.512-0.849h-0.165c-2.249,0-4.403,1.977-4.299,4.299
			c0.068,1.521,0.86,2.876,2.067,3.643c0.653,0.506,1.505,0.821,2.561,0.821C102.755,366.6,103.535,360.709,100.519,358.685z"/>
		<path style="fill:#F44901;" d="M200.68,255.228c-2.371,0-2.375,3.685,0,3.685C203.051,258.913,203.055,255.228,200.68,255.228z"/>
		<path style="fill:#F44901;" d="M142.743,250.524c-3.161,0-3.167,4.913,0,4.913C145.904,255.437,145.91,250.524,142.743,250.524z"
			/>
		<path style="fill:#F44901;" d="M59.587,305.12c-3.952,0-3.958,6.142,0,6.142C63.538,311.262,63.545,305.12,59.587,305.12z"/>
		<path style="fill:#F44901;" d="M176.824,439.262c-2.371,0-2.375,3.685,0,3.685C179.195,442.947,179.199,439.262,176.824,439.262z"
			/>
		<path style="fill:#F44901;" d="M211.067,436.799c-0.228-0.454-0.456-0.908-0.684-1.362c-0.447-0.889-1.701-1.141-2.521-0.661
			c-0.905,0.529-1.109,1.629-0.661,2.521c0.228,0.454,0.456,0.908,0.684,1.362c0.447,0.889,1.701,1.141,2.521,0.661
			C211.31,438.791,211.515,437.692,211.067,436.799z"/>
		<path style="fill:#F44901;" d="M261.777,372.613c0.187-0.973-0.427-1.773-1.313-2.116c-1.887-0.732-3.927-0.99-5.936-0.741
			c-0.987,0.122-1.842,0.759-1.842,1.842c0,0.901,0.848,1.966,1.842,1.842c0.559-0.069,1.1-0.08,1.635-0.064
			c0.212,0.797,0.892,1.41,1.771,1.41h2.045c0.964,0,1.887-0.847,1.842-1.842C261.817,372.831,261.8,372.721,261.777,372.613z"/>
	</g>
	<g>
		<path style="fill:#5F5A56;" d="M342.994,300.038c-4.485,0-7.821,1.778-10.03,4.419c-1.473-1.213-3.427-1.978-5.877-1.978
			c-8.841,0-11.329,9.886-7.444,15.431c-0.883,0.5-1.695,1.122-2.416,1.898c-1.28,1.189-2.185,2.597-2.714,4.224
			c-0.822,1.564-1.199,3.25-1.131,5.057c0.156,1.163,0.313,2.326,0.469,3.489c0.624,2.224,1.749,4.154,3.375,5.792
			c0.885,0.684,1.771,1.368,2.657,2.052c2.047,1.187,4.255,1.785,6.625,1.792h0.289c1.807,0.068,3.493-0.309,5.057-1.131
			c1.627-0.529,3.035-1.434,4.224-2.714c1.28-1.189,2.185-2.597,2.714-4.224c0.822-1.564,1.199-3.25,1.13-5.057l-0.265-1.974
			c1.034,0.234,2.141,0.368,3.336,0.368C360.654,327.483,360.683,300.038,342.994,300.038z"/>
		<path style="fill:#5F5A56;" d="M390.692,345.972c-0.85-2.015-2.306-3.644-4.084-4.783c0.037-0.373,0.054-0.75,0.025-1.134
			c-0.572-7.594-5.648-13.374-13.422-14.098c-5.88-0.548-11.891,2.442-14.998,7.487c-3.283,5.329-3.087,12.4,0.472,17.534
			c3.264,4.708,8.653,6.835,13.905,5.917c0.847,1.091,1.922,2.06,3.073,2.708c4.287,2.413,9.362,1.381,12.841-1.897
			C391.664,354.728,392.326,349.843,390.692,345.972z"/>
		<path style="fill:#5F5A56;" d="M434.349,315.948c0.191-0.267,0.368-0.546,0.524-0.84c0.321-0.76,0.642-1.52,0.962-2.28
			c0.454-1.692,0.454-3.384,0-5.076c-0.351-1.564-1.028-2.629-1.947-3.819c-0.418-0.541-0.576-0.8-0.967-1.175
			c-0.146-0.14-0.302-0.258-0.452-0.388c-0.029-0.032-0.056-0.068-0.086-0.1c-1.092-1.159-3.037-2.3-4.588-2.666
			c-1.076-0.254-2.149-0.34-3.222-0.295c-2.114-7.524-7.176-13.813-16.284-13.167c-3.628,0.257-6.482,1.753-8.479,3.936
			c-3.316-0.386-6.663-0.142-9.904,1.096c-2.692,1.029-4.811,2.619-6.538,4.56c-1.32,0.418-2.547,1.221-3.555,2.519
			c-6.751,8.688-6.935,21.97,3.263,28.439c6.166,3.912,14.239,3.496,20.195-0.283c0.145,1.249,0.436,2.525,0.888,3.815
			c3.71,10.579,16.607,14.634,25.61,8.01C437.175,332.781,438.409,323.392,434.349,315.948z"/>
		<path style="fill:#5F5A56;" d="M452.162,356.922c-3.283-7.638-11.583-12.712-20.67-9.444c-3.284,1.181-5.915,3.501-7.748,6.317
			c-5.258-1.61-11.004-0.594-14.545,4.79c-1.951,2.967-2.527,6.09-2.051,8.988c-3.361,4.557-5.768,10.138-5.06,15.451
			c0.763,5.724,4.59,8.521,9.098,9.143c0.641,2.57,1.824,4.964,3.676,6.928c4.388,4.656,11.184,6.251,17.141,4.081
			c5.404-1.969,8.785-6.943,9.706-12.24c0.934-0.469,1.814-1.028,2.763-1.454c0.415-0.053,1.165-0.191,2.295-0.422
			c3.036-0.661,5.877-2.543,7.481-5.286c2.054-3.511,1.916-7.502,0.371-10.951C459.455,368.629,458.03,359.781,452.162,356.922z"/>
		<path style="fill:#5F5A56;" d="M403.399,406.19c-0.198-0.313-0.403-0.581-0.606-0.856c-0.238-1.759-1.011-3.531-2.494-5.16
			c-3.143-3.452-6.938-4.472-10.489-3.846c-1.99-3.361-4.895-6.052-8.835-7.036c-4.444-1.111-8.042,0.143-10.533,2.627
			c-3.042-0.158-6.156,0.424-9.217,1.929c-6.657,3.272-11.25,10.225-10.202,17.782c1.101,7.936,7.814,13.482,15.778,12.908
			c2.049-0.147,3.88-0.695,5.5-1.535c3.43,0.089,6.585-1.569,8.881-4.197c5.507,6.124,17.203,4.671,22.218-2.98
			C405.195,413.085,405.136,408.937,403.399,406.19z"/>
		<path style="fill:#5F5A56;" d="M350.938,376.769c0.003-3.643-1.991-6.884-5.056-8.769c-0.713-0.301-1.425-0.601-2.138-0.902
			c-0.076-0.036-0.156-0.06-0.239-0.071c-1.306-0.386-1.723-0.333-2.653-0.313c-2.486,0.056-5.081,1.039-6.826,2.862
			c-0.483,0.505-0.932,1.061-1.333,1.655c-0.778,0.085-1.561,0.204-2.348,0.363c-3.115-1.793-6.889-2.402-10.829-1.253
			c-5.194,1.516-8.601,8.136-5.418,13.028c-0.957,2.571-1.304,5.436-1.052,8.2c-1.231,0.452-2.377,1.151-3.278,2.051
			c-0.873,0.811-1.49,1.771-1.85,2.88c-0.56,1.066-0.817,2.216-0.771,3.448c0.104,2.315,0.864,4.715,2.621,6.328
			c1.751,1.607,3.903,2.621,6.328,2.621h0.868c2.295,0,4.705-0.998,6.328-2.621c0.567-0.526,1.014-1.122,1.365-1.775
			c0.997,0.071,2.006,0.031,3.011-0.121c1.22,0.833,2.59,1.477,4.117,1.848c9.558,2.32,13.799-7.014,14.1-14.771
			c0.075-1.926-0.082-3.913-0.629-5.759C348.659,384.179,350.935,380.466,350.938,376.769z"/>
		<path style="fill:#F44901;" d="M341.605,307.589c-2.492,0-4.171,1.26-5.047,2.958c-0.689-0.457-1.541-0.747-2.586-0.747
			c-4.507,0-5.699,5.132-3.589,7.868c0.017,2.372,1.549,4.731,4.607,4.731c2.422,0,3.875-1.489,4.389-3.287
			c0.654,0.253,1.388,0.409,2.226,0.409C349.283,319.522,349.296,307.589,341.605,307.589z"/>
		<path style="fill:#F44901;" d="M399.663,301.231c-0.739-2.69-3.322-3.771-5.872-3.334c-3.406,0.584-6.67,1.71-8.848,4.544
			c-2.431,3.164-2.68,7.877,0.346,10.786c2.789,2.681,7.338,3.103,10.198,0.245c1.841-1.84,2.295-4.357,1.998-6.814
			C399.274,305.631,400.192,303.158,399.663,301.231z"/>
		<path style="fill:#F44901;" d="M429.664,315.835c-0.325-1.004-0.874-1.746-1.627-2.396c-0.004-0.006-0.007-0.012-0.01-0.018
			c0.087,0.067,0.173,0.134,0.26,0.201c-0.125-0.099-0.222-0.224-0.334-0.332c-0.082-0.147-0.183-0.282-0.251-0.44
			c0.044,0.104,0.088,0.208,0.132,0.313c-0.424-0.9-0.995-1.663-1.909-2.198c-0.884-0.517-2.117-0.749-3.179-0.572
			c-0.253-0.453-0.551-0.875-0.947-1.208c-0.99-0.832-2.04-1.398-3.375-1.398c-1.171,0-2.569,0.52-3.375,1.398
			c-0.834,0.908-1.453,2.101-1.397,3.37c-0.101,0.15-0.205,0.296-0.292,0.46c-2.204,0.809-3.686,3.438-2.946,5.724
			c0.819,2.529,3.268,3.956,5.871,3.334c1.14-0.291,2.28-0.582,3.419-0.874c0.647-0.165,1.236-0.497,1.746-0.929
			c0.362,0.329,0.753,0.632,1.203,0.955c0.954,0.682,2.591,0.78,3.678,0.481c1.107-0.305,2.307-1.161,2.853-2.193
			C429.768,318.405,430.062,317.063,429.664,315.835z"/>
		<path style="fill:#F44901;" d="M382.86,344.555c-0.947-1.605-1.893-3.21-2.84-4.816c-1.033-1.752-3.389-2.841-5.39-2.193
			c-1.867,0.604-3.712,2.478-3.504,4.603c0.013,0.133,0.078,0.52,0.097,0.856c-0.041,0.216-0.09,0.43-0.151,0.641
			c-0.012,0.064-0.012,0.09-0.018,0.133c-0.006,0.011-0.008,0.012-0.015,0.024c-0.151,0.259-1.043,1.412-0.24,0.469
			c-1.617,1.899-2.003,4.911,0,6.75c1.531,1.405,4.138,1.884,5.939,0.702c1.436,0.245,2.96-0.003,4.41-0.639
			C383.505,350.051,384.05,346.573,382.86,344.555z"/>
		<path style="fill:#F44901;" d="M451.498,365.953c-1.006-3.845-4.174-6.225-7.13-8.573c-2.017-1.602-4.781-1.969-6.75,0
			c-0.975,0.975-1.485,2.57-1.347,4.051c-0.598,0.514-1.113,1.098-1.541,1.745c-2.806,0.334-5.548,1.554-6.708,4.073
			c-0.668,1.451-1.061,3.399,0,4.818c2.023,2.707,4.606,3.166,7.432,3.068c1.244,2.866,5.34,3.323,7.618,1.376
			c1.961,0.275,4.017-0.165,5.624-1.413C451.438,372.97,452.361,369.248,451.498,365.953z"/>
		<path style="fill:#F44901;" d="M432.745,388.144c0.925-2.305-1.067-5.31-3.348-5.829c-1.46-0.333-2.711-0.071-3.725,0.598
			c-3.703-1.051-7.588,1.813-7.629,5.862c-0.035,3.447,2.544,5.884,5.663,6.311c1.072,0.988,2.434,1.613,4.086,1.659
			c3.213,0.089,5.956-2.549,5.955-5.752C433.747,389.966,433.362,388.968,432.745,388.144z"/>
		<path style="fill:#F44901;" d="M380.257,398.769c-0.291-0.503-0.654-0.944-1.054-1.339c-0.232-0.643-0.584-1.229-1.072-1.678
			c-2.027-1.86-4.72-1.739-6.75,0c-0.653,0.56-1.307,1.119-1.96,1.679c-0.777,0.666-1.25,1.739-1.374,2.82
			c-0.366,0.303-0.7,0.653-0.976,1.124c-0.599,1.023-0.852,2.531-0.481,3.678c0.716,2.213,3.4,4.355,5.871,3.334
			c0.329-0.136,0.648-0.232,0.986-0.342c0.006-0.002,0.006-0.003,0.012-0.004c0.115,0.006,0.323,0.014,0.512,0.018
			c0.125,0.032,0.251,0.059,0.373,0.099c1.991,0.59,4.372-0.383,5.39-2.193C380.971,403.763,381.607,401.101,380.257,398.769z"/>
		<path style="fill:#F44901;" d="M398.623,406.797c-0.816-1.608-2.767-2.467-4.571-2.329c-0.989-0.133-2.025,0.027-2.989,0.567
			c-1.05,0.588-2.1,1.175-3.15,1.763c-1.772,0.992-2.827,3.42-2.193,5.39c1.343,4.175,6.06,6.455,10.079,4.384
			c1.671-0.861,2.803-2.395,3.405-4.142C399.859,410.53,399.509,408.543,398.623,406.797z"/>
		<path style="fill:#F44901;" d="M339.176,384.979c-1.051-4.306-5-7.368-9.382-7.589c-4.43-0.224-8.367,3.017-9.552,7.193
			c-1.209,4.261,0.674,9.697,5.268,11.001c0.601,0.171,1.206,0.249,1.804,0.248c4.189,1.528,8.645-1.662,9.675-5.683
			C338.633,389.183,339.757,387.363,339.176,384.979z"/>
		<path style="fill:#FF6C06;" d="M326.34,380.018c-6.142,0-6.153,9.546,0,9.546C332.482,389.564,332.493,380.018,326.34,380.018z"/>
		<path style="fill:#FF6C06;" d="M341.605,309.976c-4.607,0-4.614,7.16,0,7.16C346.212,317.135,346.219,309.976,341.605,309.976z"/>
		<path style="fill:#FF6C06;" d="M393.849,305.201c-0.745-1.962-2.906-3.109-4.934-2.317c-1.928,0.753-3.327,2.829-2.514,4.92
			c0.237,0.61,0.629,1.152,1.104,1.603c-0.252,1.23,0.43,2.516,1.677,2.859c1.212,0.333,2.637-0.408,2.936-1.667l0.148-0.621
			C393.786,308.933,394.521,306.97,393.849,305.201z"/>
		<path style="fill:#FF6C06;" d="M419.455,311.678h-1.018c-1.248,0-2.444,1.098-2.387,2.387c0.058,1.293,1.049,2.387,2.387,2.387
			h1.018c1.248,0,2.444-1.098,2.387-2.387C421.784,312.771,420.793,311.678,419.455,311.678z"/>
		<path style="fill:#FF6C06;" d="M446.273,362.748c-0.398-0.701-1.072-1.191-1.998-1.191c-1.174,0-2.537,1.098-2.386,2.387
			c0.292,2.496,0.968,4.809,2.176,7.023c0.932,1.71,3.117,1.365,4.121,0C450.088,368.381,449.074,364.252,446.273,362.748z"/>
		<path style="fill:#FF6C06;" d="M421.49,386.475c-3.071,0-3.076,4.773,0,4.773C424.562,391.248,424.567,386.475,421.49,386.475z"/>
		<path style="fill:#FF6C06;" d="M396.281,409.597c-0.178-1.24-1.817-2.029-2.936-1.667c-0.42,0.136-0.749,0.348-1.009,0.606
			c-0.176,0.046-0.353,0.103-0.529,0.18c-1.221,0.533-1.92,1.933-1.891,3.215c0.034,1.497,1.219,2.629,2.65,2.821
			c1.269,0.171,2.591-0.386,3.274-1.495C396.554,412.097,396.465,410.88,396.281,409.597z"/>
		<path style="fill:#FF6C06;" d="M377.537,399.725c-0.615-1.242-1.969-2.151-3.379-2.076c-1.245,0.066-2.446,1.05-2.387,2.387
			c0.026,0.568,0.256,1.126,0.62,1.564c0.048,1.212,0.689,2.198,1.681,2.86c0.84,0.561,2.214,0.371,2.892-0.373
			C378.086,402.856,378.271,401.208,377.537,399.725z"/>
	</g>
	<g>
		<path style="fill:#5F5A56;" d="M562.287,326.777c-0.077-1.731-0.662-3.366-1.912-4.615c-0.157-0.157-0.315-0.315-0.472-0.472
			c-1.184-1.184-2.942-1.912-4.615-1.912c-1.601,0-3.513,0.711-4.615,1.912c-0.698,0.76-1.282,1.666-1.616,2.652
			c-2.512-0.988-5.464-1.19-8.05-0.843c-5.817,0.782-10.643,5.605-10.217,11.725c0.017,0.245,0.052,0.485,0.083,0.726
			c-0.156,0.135-0.307,0.276-0.449,0.43c-1.279,1.393-2.085,3.105-2.085,5.035v0.472c0,1.826,0.794,3.744,2.085,5.035
			c1.235,1.235,3.261,2.165,5.035,2.085c1.842-0.082,3.751-0.687,5.035-2.085c0.23-0.251,0.439-0.515,0.636-0.786
			c0.307,0.03,0.615,0.056,0.93,0.062c3.109,0.057,6.02-1.099,8.366-3.095c0.583-0.496,1.044-1.064,1.526-1.655
			c0.121-0.149,0.291-0.313,0.453-0.482c2.803-0.964,5.047-3.714,4.911-6.751c-0.017-0.37-0.066-0.73-0.131-1.084
			c1.205-0.277,2.404-0.879,3.191-1.736C561.517,330.149,562.365,328.516,562.287,326.777z"/>
		<path style="fill:#5F5A56;" d="M598.398,344.091c-0.897-0.296-1.977-0.305-3.039-0.083c-0.162-0.211-0.332-0.415-0.517-0.6
			c-1.132-1.132-2.989-1.984-4.615-1.912c-1.688,0.076-3.439,0.63-4.615,1.912c-1.172,1.277-1.912,2.847-1.912,4.615v0.472
			c0,1.674,0.728,3.432,1.912,4.615c0.041,0.041,0.089,0.078,0.132,0.118c-0.178,0.38-0.342,0.771-0.472,1.184
			c-1.057,3.364,0.491,7.427,3.66,9.063c3.014,1.556,6.575,1.113,9.297-0.851c1.576-1.137,2.776-2.857,3.14-4.711
			c0.108-0.103,0.219-0.201,0.322-0.311c1.585-1.702,2.427-3.992,2.339-6.31C603.896,347.81,601.643,345.161,598.398,344.091z"/>
		<path style="fill:#5F5A56;" d="M553.4,384.704c-2.965,0-4.632,1.991-5.037,4.252c-0.88-0.592-1.886-0.947-2.989-0.947h-0.472
			c-1.369,0-2.808,0.596-3.776,1.564c-0.183,0.183-0.353,0.393-0.513,0.616c-1.729-0.333-3.555-0.283-5.241,0.17
			c-3.76,1.011-5.375,4.255-4.556,7.918c0.192,0.859,0.655,1.63,1.277,2.257c-0.39,1.404-0.267,2.956,0.503,4.151
			c1.35,2.093,3.623,2.94,5.872,2.42c1.677,2.502,4.283,4.178,7.662,3.667c2.623-0.397,4.353-1.905,5.486-3.882
			c1.786-0.255,3.494-1.066,4.8-2.485c2.998-3.261,2.439-7.105,0.629-10.479C559.893,391.009,558.695,384.704,553.4,384.704z"/>
		<path style="fill:#5F5A56;" d="M613.293,416.278c-2.575-5.686-9.219-6.267-14.583-5.041c-1.081,0.247-2.124,0.553-3.129,0.937
			c-0.341-0.304-0.738-0.583-1.211-0.823c-4.954-2.51-11.008-3.414-15.545,0.536c-3.747,3.262-5.044,8.843-2.356,13.146
			c2.944,4.713,8.902,5.885,13.841,3.904c2.429-0.974,3.999-2.587,5.88-4.259c3.291,3.034,7.398,5.009,12.009,3.332
			C613.031,426.254,615.438,421.013,613.293,416.278z"/>
		<path style="fill:#5F5A56;" d="M656.516,363.033c-6.052-1.437-12.417,2.292-14.83,7.843c-1.235,2.841-1.192,5.686-0.571,8.695
			c0.058,0.283,0.121,0.559,0.182,0.836c-5.225,2.457-10.155,7.479-5.001,12.427c3.97,3.811,9.28,2.068,12.492-1.547
			c3.157,1.351,6.759,1.249,8.978-1.919c0.674-0.963,1.04-2.023,1.095-3.123c1.221-0.505,2.391-1.232,3.354-2.1
			c2.165-1.95,3.574-4.47,3.978-7.354C667.069,370.53,662.61,364.48,656.516,363.033z"/>
		<path style="fill:#5F5A56;" d="M625.635,305.109c-2.795-1.044-5.89-0.446-8.312,1.173c-5.173-3.472-13.181-2.481-14.059,5.03
			c-0.095,0.81-0.326,2.58,0.215,3.201c0.177,0.203,0.419,0.287,0.653,0.317c-1.581,0.327-3.032,1.008-4.229,2.119
			c-2.802,2.599-3.461,6.839-0.934,9.909c2.184,2.654,5.82,3.229,8.756,1.453c1.997-1.208,2.576-2.101,4.971-1.495
			c1.805,0.457,3.214,1.299,5.177,1.053c1.247-0.156,2.416-0.625,3.397-1.328c1.245,0.666,2.781,0.82,4.382,0.015
			C633.385,322.666,634.551,308.439,625.635,305.109z"/>
	</g>
</g>
<g id="DESIGNED_BY_FREEPIK">
	<g>
		<g id="XMLID_319_">
			<g id="XMLID_338_">
				<path id="XMLID_346_" style="fill:#F9FCFD;" d="M385.104,468.503c-0.432,0.443-0.803,0.931-1.108,1.453l-0.465-0.241
					c-0.067-0.298-0.349-0.503-0.659-0.466c-0.331,0.039-0.568,0.339-0.529,0.67c0.039,0.331,0.339,0.568,0.67,0.529
					c0.066-0.008,0.127-0.026,0.184-0.052l0.452,0.234c-0.251,0.554-0.433,1.139-0.539,1.744l0.746,0.132
					c0.23-1.306,0.85-2.507,1.792-3.473L385.104,468.503z"/>
				<path id="XMLID_345_" style="fill:#F9FCFD;" d="M390.592,466.201c-0.171,0-0.341,0.006-0.51,0.017l-0.074-0.626
					c0.188-0.149,0.296-0.389,0.266-0.645c-0.046-0.393-0.402-0.674-0.795-0.628c-0.393,0.046-0.674,0.402-0.628,0.795
					c0.03,0.254,0.189,0.461,0.405,0.564l0.073,0.624c-0.714,0.116-1.403,0.332-2.06,0.646l0.327,0.684
					c0.934-0.447,1.942-0.673,2.995-0.673c0.496,0,0.993,0.053,1.475,0.158l0.161-0.741
					C391.692,466.26,391.142,466.201,390.592,466.201z"/>
				<path id="XMLID_344_" style="fill:#F9FCFD;" d="M397.194,468.748c0.331-0.041,0.566-0.342,0.526-0.672
					c-0.04-0.331-0.341-0.566-0.672-0.526c-0.309,0.038-0.535,0.304-0.53,0.609l-0.416,0.363c-0.418-0.43-0.89-0.813-1.408-1.139
					l-0.404,0.641c1.134,0.715,2.021,1.726,2.563,2.925l0.69-0.313c-0.251-0.554-0.567-1.072-0.942-1.545l0.402-0.351
					C397.065,468.753,397.129,468.757,397.194,468.748z"/>
				<path id="XMLID_343_" style="fill:#F9FCFD;" d="M390.044,476.41c-0.386,0.023-0.775,0.035-1.157,0.035
					c-0.88,0-1.733-0.061-2.478-0.179c-0.39-0.062-0.846-0.155-1.27-0.292c1.046,1.861,3.069,3.125,5.388,3.125
					c2.855,0,5.262-1.916,5.95-4.504c-0.682,0.449-1.505,0.825-2.459,1.123C392.839,476.085,391.463,476.324,390.044,476.41z"/>
				<path id="XMLID_339_" style="fill:#F9FCFD;" d="M390.592,467.717c-3.352,0-6.08,2.666-6.08,5.944
					c0,0.426,0.046,0.849,0.137,1.261c0.674,0.483,2.706,0.89,5.348,0.731c2.879-0.173,5.297-0.957,6.672-2.159
					c-0.005-0.195-0.021-0.39-0.045-0.582C396.244,469.951,393.65,467.717,390.592,467.717z M388.432,474.232
					c-1.02,0-1.85-0.83-1.85-1.85c0-1.02,0.83-1.85,1.85-1.85c1.02,0,1.85,0.83,1.85,1.85
					C390.282,473.402,389.452,474.232,388.432,474.232z M393.17,473.324c-0.75,0-1.36-0.61-1.36-1.36c0-0.75,0.61-1.361,1.36-1.361
					c0.75,0,1.361,0.61,1.361,1.361C394.53,472.714,393.92,473.324,393.17,473.324z"/>
			</g>
			<path id="XMLID_336_" style="fill:#F9FCFD;" d="M406.595,469.585c-0.295-0.116-0.805-0.309-1.382-0.237
				c-0.551,0.069-0.844,0.341-0.844,1.007v0.866h2.228v1.717h-2.228v5.455h-1.932v-5.455h-1.34v-1.717h1.34v-0.888
				c0-1.68,0.896-2.783,2.568-2.783c0.643,0,1.157,0.122,1.59,0.308L406.595,469.585z"/>
			<path id="XMLID_334_" style="fill:#F9FCFD;" d="M411.298,472.917c-0.177-0.03-0.358-0.046-0.526-0.046
				c-0.895,0-1.51,0.548-1.51,1.613v3.908h-1.932v-7.172h1.873v0.785c0.451-0.673,1.14-0.977,2.021-0.977
				c0.414,0,0.848,0.127,1.094,0.337L411.298,472.917z"/>
			<path id="XMLID_331_" style="fill:#F9FCFD;" d="M418.965,474.795c0,0.222-0.015,0.489-0.037,0.651h-5.085
				c0.207,1.036,0.933,1.488,1.843,1.488c0.622,0,1.295-0.252,1.813-0.688l1.133,1.243c-0.814,0.748-1.85,1.088-3.057,1.088
				c-2.198,0-3.723-1.495-3.723-3.753c0-2.258,1.48-3.797,3.627-3.797C417.544,471.027,418.958,472.559,418.965,474.795z
				 M413.851,474.129h3.175c-0.178-0.918-0.733-1.436-1.562-1.436C414.554,472.693,414.021,473.24,413.851,474.129z"/>
			<path id="XMLID_328_" style="fill:#F9FCFD;" d="M426.618,474.795c0,0.222-0.015,0.489-0.037,0.651h-5.085
				c0.207,1.036,0.932,1.488,1.843,1.488c0.622,0,1.295-0.252,1.814-0.688l1.132,1.243c-0.814,0.748-1.85,1.088-3.057,1.088
				c-2.198,0-3.723-1.495-3.723-3.753c0-2.258,1.48-3.797,3.627-3.797C425.197,471.027,426.611,472.559,426.618,474.795z
				 M421.504,474.129h3.175c-0.178-0.918-0.733-1.436-1.562-1.436C422.207,472.693,421.674,473.24,421.504,474.129z"/>
			<path id="XMLID_325_" style="fill:#F9FCFD;" d="M434.964,474.802c0,2.154-1.495,3.775-3.471,3.775
				c-0.962,0-1.643-0.378-2.109-0.933v3.708h-1.924V471.22h1.887v0.792c0.466-0.585,1.155-0.984,2.139-0.984
				C433.469,471.027,434.964,472.648,434.964,474.802z M429.287,474.802c0,1.132,0.747,1.976,1.843,1.976
				c1.14,0,1.85-0.881,1.85-1.976c0-1.095-0.71-1.976-1.85-1.976C430.035,472.826,429.287,473.67,429.287,474.802z"/>
			<path id="XMLID_322_" style="fill:#F9FCFD;" d="M438.067,468.874c0,0.696-0.54,1.229-1.236,1.229
				c-0.696,0-1.229-0.533-1.229-1.229c0-0.696,0.533-1.243,1.229-1.243C437.527,467.63,438.067,468.178,438.067,468.874z
				 M437.809,478.392h-1.932v-7.172h1.932V478.392z"/>
			<path id="XMLID_320_" style="fill:#F9FCFD;" d="M441.032,473.773l2.702-2.554h2.368l-3.479,3.375l3.501,3.797h-2.376
				l-2.716-2.901v2.901H439.1v-10.658h1.932V473.773z"/>
		</g>
		<g>
			<path style="fill:#F9FCFD;" d="M309.412,478.327v-1.055c-0.527,0.718-1.391,1.23-2.387,1.23c-1.846,0-3.149-1.406-3.149-3.706
				c0-2.256,1.289-3.721,3.149-3.721c0.952,0,1.816,0.469,2.387,1.245v-3.765h1.099v9.77H309.412z M309.412,476.408V473.2
				c-0.395-0.615-1.245-1.143-2.124-1.143c-1.421,0-2.27,1.172-2.27,2.739c0,1.567,0.85,2.724,2.27,2.724
				C308.167,477.521,309.017,477.023,309.412,476.408z"/>
			<path style="fill:#F9FCFD;" d="M311.932,474.782c0-2.051,1.465-3.706,3.486-3.706c2.139,0,3.398,1.67,3.398,3.794v0.279h-5.727
				c0.088,1.333,1.025,2.446,2.549,2.446c0.805,0,1.626-0.322,2.182-0.893l0.527,0.718c-0.703,0.703-1.655,1.084-2.812,1.084
				C313.44,478.503,311.932,476.994,311.932,474.782z M315.403,471.984c-1.509,0-2.256,1.274-2.314,2.358h4.643
				C317.718,473.288,317.014,471.984,315.403,471.984z"/>
			<path style="fill:#F9FCFD;" d="M319.607,477.389l0.571-0.791c0.469,0.542,1.362,1.011,2.329,1.011c1.084,0,1.67-0.513,1.67-1.216
				c0-1.714-4.38-0.659-4.38-3.281c0-1.098,0.952-2.036,2.636-2.036c1.201,0,2.051,0.454,2.622,1.025l-0.513,0.762
				c-0.424-0.513-1.201-0.894-2.109-0.894c-0.967,0-1.567,0.483-1.567,1.113c0,1.553,4.38,0.527,4.38,3.281
				c0,1.187-0.952,2.138-2.783,2.138C321.306,478.503,320.324,478.151,319.607,477.389z"/>
			<path style="fill:#F9FCFD;" d="M326.477,469.509c0-0.41,0.337-0.747,0.732-0.747c0.41,0,0.747,0.337,0.747,0.747
				c0,0.41-0.337,0.732-0.747,0.732C326.814,470.241,326.477,469.919,326.477,469.509z M326.667,478.327v-7.075h1.099v7.075H326.667
				z"/>
			<path style="fill:#F9FCFD;" d="M329.582,480.143l0.556-0.82c0.586,0.703,1.289,0.967,2.3,0.967c1.172,0,2.27-0.571,2.27-2.124
				v-1.011c-0.513,0.718-1.377,1.26-2.373,1.26c-1.845,0-3.149-1.377-3.149-3.662c0-2.27,1.289-3.676,3.149-3.676
				c0.952,0,1.802,0.469,2.373,1.245v-1.069h1.099v6.87c0,2.344-1.641,3.076-3.369,3.076
				C331.237,481.198,330.417,480.963,329.582,480.143z M334.709,476.291V473.2c-0.381-0.615-1.23-1.143-2.109-1.143
				c-1.421,0-2.27,1.128-2.27,2.695c0,1.553,0.849,2.695,2.27,2.695C333.478,477.448,334.328,476.906,334.709,476.291z"/>
			<path style="fill:#F9FCFD;" d="M342.413,478.327v-4.629c0-1.245-0.63-1.641-1.582-1.641c-0.864,0-1.685,0.527-2.095,1.099v5.17
				h-1.099v-7.075h1.099v1.025c0.498-0.586,1.465-1.201,2.519-1.201c1.48,0,2.256,0.747,2.256,2.285v4.966H342.413z"/>
			<path style="fill:#F9FCFD;" d="M344.932,474.782c0-2.051,1.465-3.706,3.486-3.706c2.138,0,3.398,1.67,3.398,3.794v0.279h-5.727
				c0.088,1.333,1.025,2.446,2.549,2.446c0.806,0,1.626-0.322,2.183-0.893l0.527,0.718c-0.703,0.703-1.655,1.084-2.812,1.084
				C346.441,478.503,344.932,476.994,344.932,474.782z M348.404,471.984c-1.509,0-2.256,1.274-2.314,2.358h4.643
				C350.718,473.288,350.015,471.984,348.404,471.984z"/>
			<path style="fill:#F9FCFD;" d="M358.35,478.327v-1.055c-0.527,0.718-1.392,1.23-2.388,1.23c-1.846,0-3.149-1.406-3.149-3.706
				c0-2.256,1.289-3.721,3.149-3.721c0.952,0,1.817,0.469,2.388,1.245v-3.765h1.098v9.77H358.35z M358.35,476.408V473.2
				c-0.396-0.615-1.245-1.143-2.124-1.143c-1.421,0-2.27,1.172-2.27,2.739c0,1.567,0.849,2.724,2.27,2.724
				C357.105,477.521,357.954,477.023,358.35,476.408z"/>
			<path style="fill:#F9FCFD;" d="M364.692,478.327v-9.77h1.098v3.765c0.572-0.776,1.421-1.245,2.388-1.245
				c1.845,0,3.149,1.465,3.149,3.721c0,2.299-1.304,3.706-3.149,3.706c-0.996,0-1.86-0.513-2.388-1.23v1.055H364.692z
				 M367.9,477.521c1.436,0,2.285-1.157,2.285-2.724c0-1.568-0.85-2.739-2.285-2.739c-0.864,0-1.728,0.527-2.109,1.143v3.208
				C366.171,477.023,367.036,477.521,367.9,477.521z"/>
			<path style="fill:#F9FCFD;" d="M372.528,480.099c0.161,0.073,0.425,0.117,0.601,0.117c0.483,0,0.806-0.161,1.055-0.747
				l0.469-1.069l-2.959-7.148h1.187l2.358,5.801l2.344-5.801h1.201l-3.545,8.51c-0.425,1.025-1.143,1.421-2.08,1.435
				c-0.234,0-0.601-0.044-0.806-0.103L372.528,480.099z"/>
		</g>
	</g>
</g>
</svg>
